<?xml version="1.0" encoding="UTF-8" standalone="no"?>
<!-- Created with Inkscape (http://www.inkscape.org/) -->

<svg
   width="224.86858mm"
   height="29.220221mm"
   viewBox="0 0 224.86858 29.220221"
   version="1.1"
   id="svg1"
   inkscape:version="1.3.2 (091e20ef0f, 2023-11-25, custom)"
   sodipodi:docname="androme.svg"
   xmlns:inkscape="http://www.inkscape.org/namespaces/inkscape"
   xmlns:sodipodi="http://sodipodi.sourceforge.net/DTD/sodipodi-0.dtd"
   xmlns="http://www.w3.org/2000/svg"
   xmlns:svg="http://www.w3.org/2000/svg">
  <sodipodi:namedview
     id="namedview1"
     pagecolor="#ffffff"
     bordercolor="#000000"
     borderopacity="0.25"
     inkscape:showpageshadow="2"
     inkscape:pageopacity="0.0"
     inkscape:pagecheckerboard="0"
     inkscape:deskcolor="#d1d1d1"
     inkscape:document-units="mm"
     inkscape:zoom="3.1617232"
     inkscape:cx="394.24704"
     inkscape:cy="62.149654"
     inkscape:window-width="1920"
     inkscape:window-height="1131"
     inkscape:window-x="0"
     inkscape:window-y="0"
     inkscape:window-maximized="1"
     inkscape:current-layer="layer1" />
  <defs
     id="defs1" />
  <g
     inkscape:label="Layer 1"
     inkscape:groupmode="layer"
     id="layer1"
     transform="translate(7.2273081,-134.00582)">
    <path
       id="path8"
       d="m -0.22910199,163.22595 c -1.40406191,0 -2.62734361,-0.24484 -3.67184931,-0.72312 -1.0505355,-0.5022 -1.8660566,-1.19315 -2.4465577,-2.07098 -0.5885408,-0.87976 -0.8797991,-1.89816 -0.8797991,-3.07526 0,-1.13085 0.2349858,-2.1352 0.723121,-3.01296 0.5021421,-0.87982 1.261442,-1.617 2.2898853,-2.22966 1.0445056,-0.60258 2.3541576,-1.04249 3.92292599,-1.31768 l 7.15689421,-1.16103 v 3.38864 l -6.30923121,1.06863 c -1.12887168,0.21067 -1.96850059,0.58049 -2.51084139,1.09874 -0.5483763,0.52441 -0.8155155,1.1911 -0.8155155,2.00869 0,0.77533 0.2972768,1.41208 0.9099255,1.91422 0.6046089,0.48625 1.36589592,0.72113 2.29188945,0.72113 1.16904765,0 2.18141705,-0.2511 3.04313825,-0.75325 0.8797935,-0.5022 1.5547103,-1.17709 2.040807,-2.04079 0.5021421,-0.85368 0.753253,-1.79579 0.753253,-2.82422 v -5.27274 c 0,-1.00435 -0.3776172,-1.82791 -1.1308816,-2.47872 -0.753253,-0.64278 -1.7495544,-0.97422 -2.9808644,-0.97422 -1.1288774,0 -2.12718301,0.2995 -2.98087012,0.87982 -0.86372538,0.58852 -1.49244218,1.3659 -1.88412888,2.32202 l -3.5774393,-1.78771 c 0.391681,-1.0204 1.0123694,-1.91627 1.8519927,-2.66951 0.8556914,-0.76731 1.8600268,-1.37997 3.0130006,-1.81987 1.14494547,-0.44014 2.38429525,-0.65884 3.7019812,-0.65884 1.6089444,0 3.0290744,0.30519 4.2704284,0.90994 1.2534137,0.61266 2.2276172,1.4603 2.9185963,2.54299 0.7050426,1.06658 1.0666036,2.31393 1.0666036,3.7341 v 13.80961 H 6.4577578 v -3.70403 l 0.8456474,0.0945 c -0.4860854,0.83968 -1.0967298,1.5628 -1.8499828,2.16538 -0.7391891,0.61266 -1.5848422,1.08468 -2.5429776,1.41407 -0.9420673,0.32968 -1.99259708,0.5022 -3.13954679,0.5022 z M 15.567073,162.75392 v -20.55673 h 4.07961 v 4.04748 l -0.470029,-0.53237 c 0.478057,-1.2715 1.269476,-2.24367 2.38429,-2.91862 1.130882,-0.69095 2.432499,-1.03646 3.922932,-1.03646 1.5065,0 2.83222,0.33765 3.987209,1.00434 1.169042,0.65081 2.087008,1.56075 2.761919,2.72976 0.666877,1.155 1.004335,2.4807 1.004335,3.98724 v 13.27531 h -4.30056 v -12.11433 c 0,-1.0204 -0.188809,-1.89014 -0.564433,-2.60523 -0.377618,-0.72916 -0.909926,-1.29359 -1.600911,-1.69529 -0.674911,-0.39174 -1.4603,-0.5966 -2.354157,-0.5966 -0.901897,0 -1.695321,0.20498 -2.384295,0.5966 -0.69098,0.40142 -1.241354,0.96613 -1.633047,1.69529 -0.375624,0.73719 -0.564433,1.60089 -0.564433,2.60523 v 12.11433 z m 31.722917,0.47203 c -1.970505,0 -3.736128,-0.47203 -5.304896,-1.41413 -1.5527,-0.95612 -2.777992,-2.24367 -3.671849,-3.85862 -0.901892,-1.63306 -1.349823,-3.45293 -1.349823,-5.46162 0,-2.04882 0.447937,-3.87672 1.349823,-5.49367 0.917965,-1.60692 2.149275,-2.88644 3.703985,-3.82855 1.544672,-0.94205 3.294221,-1.41208 5.240623,-1.41208 1.633047,0 3.083303,0.33765 4.362829,1.00434 1.271486,0.65081 2.275821,1.56075 3.013006,2.72975 l -0.658848,0.97422 v -12.45977 h 4.268424 v 28.7481 H 54.16366 v -4.17406 l 0.502142,0.78542 c -0.715087,1.25544 -1.727457,2.21958 -3.045143,2.88645 -1.317686,0.64477 -2.761924,0.97422 -4.330692,0.97422 z m 0.407737,-4.01737 c 1.207208,0 2.289886,-0.28298 3.231947,-0.84764 0.942068,-0.58049 1.679253,-1.38999 2.229627,-2.41642 0.540348,-1.0204 0.815516,-2.17341 0.815516,-3.45294 0,-1.29558 -0.275185,-2.44853 -0.815516,-3.45287 -0.550369,-1.0204 -1.287559,-1.8279 -2.229627,-2.41642 -0.942061,-0.58049 -2.024739,-0.87982 -3.231947,-0.87982 -1.193149,0 -2.275821,0.2995 -3.233956,0.87982 -0.940058,0.58852 -1.685277,1.37997 -2.227617,2.38425 -0.548377,1.00434 -0.815522,2.16737 -0.815522,3.48504 0,1.27953 0.267157,2.43254 0.815522,3.45294 0.54234,1.02643 1.287559,1.83593 2.227617,2.41642 0.958135,0.56426 2.040807,0.84764 3.233956,0.84764 z m 15.551117,3.54534 v -20.55673 h 4.07961 v 4.174 l -0.375624,-0.59655 c 0.453972,-1.35787 1.19315,-2.3301 2.197479,-2.91862 1.0184,-0.58049 2.243686,-0.87981 3.67185,-0.87981 h 1.255417 v 3.89284 h -1.789724 c -1.444232,0 -2.60524,0.43956 -3.483029,1.31767 -0.863732,0.87976 -1.28756,2.11915 -1.28756,3.70398 v 11.86322 z m 23.650084,0.47203 c -1.994618,0 -3.798378,-0.46405 -5.431436,-1.38196 -1.631008,-0.94211 -2.934676,-2.21156 -3.89079,-3.82856 -0.966135,-1.63306 -1.444249,-3.48504 -1.444249,-5.55596 0,-2.07092 0.478285,-3.89882 1.444249,-5.49168 0.956114,-1.60897 2.243668,-2.87244 3.86067,-3.79843 1.608915,-0.94205 3.428789,-1.41208 5.461556,-1.41208 2.008683,0 3.812443,0.46405 5.429444,1.38196 1.606923,0.92599 2.886449,2.18747 3.828556,3.79638 0.956114,1.617 1.444192,3.45293 1.444192,5.52385 0,2.07092 -0.494228,3.9229 -1.476363,5.55596 -0.964142,1.617 -2.251696,2.88645 -3.860669,3.82856 -1.614951,0.91796 -3.404704,1.38196 -5.36516,1.38196 z m 0,-4.01737 c 1.191157,0 2.257732,-0.28298 3.19984,-0.84764 0.94205,-0.58049 1.679235,-1.38999 2.229604,-2.41642 0.540348,-1.0204 0.815532,-2.18144 0.815532,-3.48505 0,-1.29359 -0.275013,-2.44859 -0.815532,-3.45293 -0.550597,-1.00428 -1.287554,-1.79573 -2.229604,-2.38425 -0.942108,-0.58049 -2.008683,-0.87982 -3.19984,-0.87982 -1.217234,0 -2.291895,0.2995 -3.233945,0.87982 -0.94205,0.58852 -1.695292,1.37997 -2.259725,2.38425 -0.548319,1.00434 -0.815532,2.15934 -0.815532,3.45293 0,1.30361 0.267042,2.46465 0.815532,3.48505 0.564262,1.02643 1.317675,1.83593 2.259725,2.41642 0.94205,0.56426 2.016711,0.84764 3.233945,0.84764 z m 14.860142,3.54534 v -20.55673 h 4.07959 v 4.48733 l -0.50219,-0.72107 c 0.41565,-1.38196 1.19315,-2.4245 2.32201,-3.13954 1.13086,-0.70507 2.43248,-1.06663 3.92495,-1.06663 1.63101,0 3.08329,0.44014 4.36082,1.31767 1.29559,0.87982 2.16737,2.0408 2.60523,3.48505 l -1.22327,0.0945 c 0.58049,-1.63306 1.50648,-2.85633 2.76193,-3.67386 1.27149,-0.81553 2.71369,-1.22327 4.33069,-1.22327 1.42011,0 2.70766,0.33765 3.86067,1.00434 1.14493,0.65081 2.05486,1.56075 2.72976,2.72976 0.691,1.155 1.03651,2.4807 1.03651,3.98724 v 13.27531 h -4.26847 v -12.11433 c 0,-1.0204 -0.18903,-1.89013 -0.56426,-2.60523 -0.36156,-0.72915 -0.8637,-1.29359 -1.50648,-1.69529 -0.65081,-0.39174 -1.41208,-0.5966 -2.2919,-0.5966 -0.83961,0 -1.59286,0.20498 -2.25978,0.5966 -0.67489,0.40142 -1.19315,0.96614 -1.56872,1.69529 -0.3775,0.73719 -0.56426,1.60089 -0.56426,2.60523 v 12.11433 h -4.26841 v -12.11433 c 0,-1.0204 -0.18903,-1.89013 -0.56654,-2.60523 -0.35928,-0.72915 -0.8617,-1.29359 -1.50648,-1.69529 -0.65081,-0.39174 -1.40411,-0.5966 -2.25978,-0.5966 -0.86171,0 -1.62298,0.20498 -2.2899,0.5966 -0.65081,0.40142 -1.16098,0.96614 -1.5386,1.69529 -0.37579,0.73719 -0.56426,1.60089 -0.56426,2.60523 v 12.11433 z m 44.51214,0.47203 c -2.05486,0 -3.87673,-0.47203 -5.46161,-1.41413 -1.56872,-0.95612 -2.80811,-2.25973 -3.70193,-3.89079 -0.87981,-1.63306 -1.31972,-3.46091 -1.31972,-5.49168 0,-2.07297 0.4481,-3.90087 1.34984,-5.49373 0.89588,-1.60891 2.10309,-2.87039 3.60957,-3.79638 1.52254,-0.91797 3.24801,-1.38196 5.17835,-1.38196 1.54668,0 2.92664,0.27501 4.14388,0.81553 1.20721,0.52611 2.23564,1.25539 3.07526,2.19749 0.83158,0.926 1.47437,1.97651 1.91427,3.16966 0.45608,1.1771 0.69101,2.43248 0.69101,3.76627 0,0.33765 -0.0228,0.68292 -0.0621,1.03645 -0.0456,0.33765 -0.0945,0.65884 -0.15886,0.97223 h -16.38268 v -3.42076 h 13.93614 l -2.00868,1.56872 c 0.22718,-1.25539 0.13266,-2.36017 -0.28299,-3.32636 -0.39971,-0.9802 -1.02843,-1.75758 -1.88216,-2.32202 -0.86371,-0.56426 -1.85199,-0.84764 -2.98285,-0.84764 -1.12887,0 -2.14926,0.28298 -3.04314,0.84764 -0.87982,0.56427 -1.56274,1.37997 -2.0408,2.4486 -0.48626,1.05051 -0.68292,2.31398 -0.5966,3.79638 -0.11046,1.40405 0.0945,2.62937 0.5966,3.67186 0.51814,1.02843 1.25544,1.83593 2.19749,2.41642 0.95612,0.58852 2.04683,0.87982 3.26407,0.87982 1.25544,0 2.30596,-0.28299 3.16972,-0.84771 0.87776,-0.56426 1.56871,-1.28755 2.07091,-2.16532 l 3.51517,1.72547 c -0.42363,0.96614 -1.05855,1.83588 -1.91428,2.60523 -0.83962,0.75324 -1.84396,1.3659 -3.01297,1.81982 -1.17709,0.44013 -2.46464,0.66089 -3.86067,0.66089 z"
       style="fill:#004f45;fill-opacity:1;fill-rule:nonzero;stroke:none;stroke-width:2.00867" />
    <path
       id="path10"
       d="m 161.80021,162.75392 v -4.9273 h 4.39298 v 4.9273 z m 22.25203,0.47203 c -1.59286,0 -3.03711,-0.32968 -4.3327,-0.97422 -1.30161,-0.66687 -2.31398,-1.63101 -3.04314,-2.88645 l 0.5022,-0.78542 v 4.17406 h -4.0796 v -28.7481 h 4.26841 v 12.45977 l -0.66083,-0.97422 c 0.75324,-1.169 1.75758,-2.07894 3.01296,-2.72975 1.2715,-0.66687 2.73181,-1.00434 4.36287,-1.00434 1.94639,0 3.68792,0.46974 5.24263,1.41208 1.54463,0.94211 2.76995,2.22163 3.6718,3.82855 0.89388,1.61695 1.34985,3.44485 1.34985,5.49367 0,2.00869 -0.45608,3.82856 -1.34985,5.46162 -0.87976,1.61495 -2.10303,2.9025 -3.6718,3.85862 -1.55471,0.9421 -3.31229,1.41413 -5.2728,1.41413 z m -0.40769,-4.01737 c 1.20722,0 2.28991,-0.28298 3.23196,-0.84764 0.94205,-0.58049 1.6712,-1.38999 2.19749,-2.41642 0.54035,-1.0204 0.81553,-2.17341 0.81553,-3.45294 0,-1.31767 -0.27501,-2.4807 -0.81553,-3.48504 -0.52612,-1.00428 -1.25544,-1.79573 -2.19749,-2.38425 -0.94205,-0.58049 -2.02474,-0.87982 -3.23196,-0.87982 -1.19315,0 -2.27583,0.2995 -3.23394,0.87982 -0.94205,0.58852 -1.68726,1.39602 -2.22761,2.41642 -0.5506,1.00434 -0.81554,2.15729 -0.81554,3.45287 0,1.27953 0.26534,2.43254 0.81554,3.45294 0.54035,1.02643 1.28556,1.83593 2.22761,2.41642 0.95811,0.56426 2.04079,0.84764 3.23394,0.84764 z m 24.51984,4.01737 c -2.05691,0 -3.87672,-0.47203 -5.46155,-1.41413 -1.56878,-0.95612 -2.81015,-2.25973 -3.70403,-3.89079 -0.87777,-1.63306 -1.31768,-3.46091 -1.31768,-5.49168 0,-2.07297 0.44583,-3.90087 1.34985,-5.49373 0.89382,-1.60891 2.10308,-2.87039 3.60957,-3.79638 1.52054,-0.91797 3.24801,-1.38196 5.17834,-1.38196 1.54469,0 2.92665,0.27501 4.14189,0.81553 1.20921,0.52611 2.23564,1.25539 3.07526,2.19749 0.83358,0.926 1.47636,1.97651 1.91627,3.16966 0.4538,1.1771 0.68896,2.43248 0.68896,3.76627 0,0.33765 -0.0228,0.68292 -0.0621,1.03645 -0.0455,0.33765 -0.0945,0.65884 -0.15658,0.97223 h -16.38268 v -3.42076 h 13.93415 l -2.00869,1.56872 c 0.22719,-1.25539 0.13438,-2.36017 -0.28127,-3.32636 -0.40199,-0.9802 -1.02843,-1.75758 -1.88416,-2.32202 -0.8637,-0.56426 -1.85199,-0.84764 -2.98085,-0.84764 -1.13086,0 -2.15126,0.28298 -3.04514,0.84764 -0.87777,0.56427 -1.56075,1.37997 -2.04079,2.4486 -0.48626,1.05051 -0.68093,2.31398 -0.59456,3.79638 -0.11046,1.40405 0.0922,2.62937 0.59456,3.67186 0.51814,1.02843 1.25538,1.83593 2.19749,2.41642 0.9581,0.58852 2.04882,0.87982 3.26406,0.87982 1.25544,0 2.30795,-0.28299 3.16966,-0.84771 0.87982,-0.56426 1.57083,-1.28755 2.07297,-2.16532 l 3.51517,1.72547 c -0.42363,0.96614 -1.0606,1.83588 -1.91628,2.60523 -0.83961,0.75324 -1.84395,1.3659 -3.01302,1.81982 -1.17504,0.44013 -2.4626,0.66089 -3.85862,0.66089 z"
       style="fill:#00aca2;fill-opacity:1;fill-rule:nonzero;stroke:none;stroke-width:2.00867" />
  </g>
</svg>
