<svg xmlns="http://www.w3.org/2000/svg" xmlns:xlink="http://www.w3.org/1999/xlink" viewBox="0 0 260.58 63.07"><defs><style>.cls-1{fill:#006fd3;}.cls-2{fill:#f44500;}.cls-3{fill:url(#Naamloos_verloop_47);}.cls-4{fill:url(#Naamloos_verloop_47-2);}.cls-5{fill:url(#Naamloos_verloop_79);}.cls-6{fill:url(#Naamloos_verloop_79-2);}</style><linearGradient id="Naamloos_verloop_47" x1="35.24" y1="31.6" x2="69.37" y2="31.6" gradientUnits="userSpaceOnUse"><stop offset="0.2" stop-color="#0054ce"></stop><stop offset="0.8" stop-color="#006fd3"></stop></linearGradient><linearGradient id="Naamloos_verloop_47-2" x1="35.38" y1="32.44" x2="55.04" y2="32.44" xlink:href="#Naamloos_verloop_47"></linearGradient><linearGradient id="Naamloos_verloop_79" y1="31.46" x2="34.13" y2="31.46" gradientUnits="userSpaceOnUse"><stop offset="0.3" stop-color="#f44500"></stop><stop offset="0.8" stop-color="#e53600"></stop></linearGradient><linearGradient id="Naamloos_verloop_79-2" x1="14.33" y1="32.3" x2="33.99" y2="32.3" xlink:href="#Naamloos_verloop_79"></linearGradient></defs><title>Middel 2</title><g id="Laag_2" data-name="Laag 2"><g id="Laag_1-2" data-name="Laag 1"><path class="cls-1" d="M182.35,29.6a2.64,2.64,0,0,1-.85-.12,2.07,2.07,0,0,1-.56-.29q-3-2.58-5.47-4.76t-4.55-4.18q-2.08-2-3.91-4.08c-1-1.11-1.86-2.1-2.66-3a14.5,14.5,0,0,1-1.93-2.6,5.48,5.48,0,0,1-.73-2.81,7.11,7.11,0,0,1,1.1-3.8,8.18,8.18,0,0,1,3.14-2.87A10,10,0,0,1,170.75,0a13.39,13.39,0,0,1,5.18,1A5.67,5.67,0,0,1,179,3.49a4.3,4.3,0,0,1,.2.52,3.39,3.39,0,0,1,.17,1.1,1.88,1.88,0,0,1-.58,1.38,2.18,2.18,0,0,1-1.58.58,1.9,1.9,0,0,1-1-.25,2.49,2.49,0,0,1-.58-.5,5,5,0,0,0-2.1-1.68,7.37,7.37,0,0,0-2.77-.48,3.79,3.79,0,0,0-2.85,1,3.25,3.25,0,0,0-1,2.36,4.33,4.33,0,0,0,.91,2.56,16.8,16.8,0,0,0,2.1,2.39c.79.75,1.45,1.42,2,2,.85.91,1.82,1.89,2.89,2.93s2.14,2.05,3.22,3l3,2.75c.93.84,1.69,1.54,2.27,2.1a3.79,3.79,0,0,1,.81,1,2.47,2.47,0,0,1,.27,1.2,2.7,2.7,0,0,1-.48,1.33A1.68,1.68,0,0,1,182.35,29.6Z"></path><path class="cls-2" d="M167.55,31a10.83,10.83,0,0,1-5.3-1.29,10,10,0,0,1-3.7-3.36,8,8,0,0,1-1.35-4.45,9.62,9.62,0,0,1,.73-3.81,8.44,8.44,0,0,1,2.2-3A12.82,12.82,0,0,1,164,12.73L167,16.17c-1.94.42-3.11,1-3.76,1.85a5,5,0,0,0-1,3.1,5.22,5.22,0,0,0,.62,2.43,4.9,4.9,0,0,0,2,2,7.94,7.94,0,0,0,3.78.77,6.91,6.91,0,0,0,3.52-.9,9,9,0,0,0,2.7-2.37,13.56,13.56,0,0,0,1.87-3.28,15.19,15.19,0,0,0,1-3.68,1.56,1.56,0,0,1,.52-1,2.08,2.08,0,0,1,1.3-.37,2.2,2.2,0,0,1,1.9.89,2.78,2.78,0,0,1,.44,2,18.76,18.76,0,0,1-1.44,4.89,15.9,15.9,0,0,1-2.83,4.32,12.86,12.86,0,0,1-4.28,3.08A14,14,0,0,1,167.55,31Z"></path><path d="M97,43.31a9.73,9.73,0,0,1,2.61.31,4.26,4.26,0,0,1,1.73.88,1.76,1.76,0,0,1,.61,1.35,1.68,1.68,0,0,1-.31,1,1,1,0,0,1-.92.46,1.71,1.71,0,0,1-.69-.12,1.84,1.84,0,0,1-.49-.3,3.35,3.35,0,0,0-.5-.34,2.43,2.43,0,0,0-.8-.25,5.18,5.18,0,0,0-.8-.09,4.15,4.15,0,0,0-2.26.58,3.78,3.78,0,0,0-1.43,1.56,5,5,0,0,0-.5,2.26,4.77,4.77,0,0,0,.51,2.24,4,4,0,0,0,1.42,1.56,3.72,3.72,0,0,0,2.08.58,7.3,7.3,0,0,0,1.13-.08,2.56,2.56,0,0,0,.78-.24,5,5,0,0,0,.66-.44,1.56,1.56,0,0,1,1.91.19,1.58,1.58,0,0,1,.37,1.07,1.52,1.52,0,0,1-.74,1.19,5.81,5.81,0,0,1-1.92.86,9.7,9.7,0,0,1-2.58.33,6.57,6.57,0,0,1-3.59-1,6.36,6.36,0,0,1-2.35-2.6,8.18,8.18,0,0,1-.82-3.7A7.82,7.82,0,0,1,91,46.81a6.4,6.4,0,0,1,2.43-2.57A6.85,6.85,0,0,1,97,43.31Z"></path><path d="M114.69,43.57a1.49,1.49,0,0,1,1.13.46,1.58,1.58,0,0,1,.44,1.14V56.3a7.13,7.13,0,0,1-.9,3.84,5.16,5.16,0,0,1-2.42,2.06,8.85,8.85,0,0,1-3.41.63,14.22,14.22,0,0,1-1.78-.13,5.88,5.88,0,0,1-1.55-.4,2.27,2.27,0,0,1-1.09-.85,1.26,1.26,0,0,1-.11-1.09,1.61,1.61,0,0,1,.76-1,1.32,1.32,0,0,1,1.1-.07c.28.09.64.23,1.1.41a4.23,4.23,0,0,0,1.57.28,5.26,5.26,0,0,0,2-.33,2.32,2.32,0,0,0,1.21-1.1,4.6,4.6,0,0,0,.41-2.11V54.65l.55.63a4.6,4.6,0,0,1-1.12,1.43,4.37,4.37,0,0,1-1.58.85,7.06,7.06,0,0,1-2.1.29,4.46,4.46,0,0,1-2.42-.64,4.34,4.34,0,0,1-1.61-1.78,5.63,5.63,0,0,1-.58-2.61V45.17a1.58,1.58,0,0,1,.44-1.14,1.51,1.51,0,0,1,1.13-.46A1.49,1.49,0,0,1,107,44a1.58,1.58,0,0,1,.44,1.14v6.71a3.15,3.15,0,0,0,.75,2.39,2.91,2.91,0,0,0,2.08.7,3.09,3.09,0,0,0,1.55-.36,2.33,2.33,0,0,0,1-1,3.8,3.8,0,0,0,.34-1.69V45.17a1.58,1.58,0,0,1,.44-1.14A1.51,1.51,0,0,1,114.69,43.57Z"></path><path d="M126.85,43.31a6,6,0,0,1,3.29.93,6.53,6.53,0,0,1,2.3,2.55,8.83,8.83,0,0,1,0,7.56,6.55,6.55,0,0,1-2.28,2.57,5.74,5.74,0,0,1-3.21.93,5.49,5.49,0,0,1-2-.34,6.34,6.34,0,0,1-1.61-.87,4.74,4.74,0,0,1-1.08-1.06,1.69,1.69,0,0,1-.38-.9l.82-.34v1.91a1.54,1.54,0,0,1-.45,1.14,1.62,1.62,0,0,1-2.25,0,1.54,1.54,0,0,1-.45-1.15V39.8a1.54,1.54,0,0,1,.45-1.14,1.47,1.47,0,0,1,1.12-.46,1.49,1.49,0,0,1,1.13.46,1.54,1.54,0,0,1,.45,1.14v6.65l-.45-.23a1.44,1.44,0,0,1,.37-.83,5.08,5.08,0,0,1,1-1,5.84,5.84,0,0,1,1.46-.8A4.83,4.83,0,0,1,126.85,43.31Zm-.39,2.88a3.5,3.5,0,0,0-2,.58,3.81,3.81,0,0,0-1.35,1.56,5,5,0,0,0-.49,2.24,5.18,5.18,0,0,0,.49,2.24,3.8,3.8,0,0,0,1.35,1.58,3.5,3.5,0,0,0,2,.58,3.46,3.46,0,0,0,2-.58,3.93,3.93,0,0,0,1.34-1.58,5.17,5.17,0,0,0,.48-2.24,5,5,0,0,0-.48-2.24,3.93,3.93,0,0,0-1.34-1.56A3.46,3.46,0,0,0,126.46,46.19Z"></path><path d="M142.57,57.85a7.66,7.66,0,0,1-3.86-.93,6.32,6.32,0,0,1-2.52-2.53,7.32,7.32,0,0,1-.88-3.62,7.92,7.92,0,0,1,1-4,6.73,6.73,0,0,1,2.5-2.55,6.39,6.39,0,0,1,3.28-.89,5.86,5.86,0,0,1,2.52.55,6.83,6.83,0,0,1,2.11,1.5,7.44,7.44,0,0,1,1.46,2.22,6.71,6.71,0,0,1,.54,2.67,1.36,1.36,0,0,1-.5,1,1.69,1.69,0,0,1-1.1.4h-10l-.79-2.62h9.62l-.58.52v-.71a2.32,2.32,0,0,0-.54-1.36,3.54,3.54,0,0,0-1.2-1,3.5,3.5,0,0,0-1.53-.35,4.93,4.93,0,0,0-1.47.21,2.79,2.79,0,0,0-1.18.71,3.51,3.51,0,0,0-.79,1.33,6.75,6.75,0,0,0-.28,2.13,4.58,4.58,0,0,0,.58,2.39,4,4,0,0,0,3.5,2,6.35,6.35,0,0,0,1.55-.16,3.39,3.39,0,0,0,.93-.38c.23-.15.45-.28.64-.38a2,2,0,0,1,.89-.24,1.33,1.33,0,0,1,1.34,1.31,1.65,1.65,0,0,1-.74,1.29,6.15,6.15,0,0,1-1.91,1A7.57,7.57,0,0,1,142.57,57.85Z"></path><path d="M152.92,57.59a1.55,1.55,0,0,1-1.13-.46,1.61,1.61,0,0,1-.44-1.14V45.17a1.58,1.58,0,0,1,.44-1.14,1.62,1.62,0,0,1,2.26,0,1.58,1.58,0,0,1,.44,1.14v2.46l-.18-1.75a3.93,3.93,0,0,1,.75-1.12,4.49,4.49,0,0,1,1-.81,4.72,4.72,0,0,1,1.23-.49,5.85,5.85,0,0,1,1.31-.15,2,2,0,0,1,1.32.44,1.34,1.34,0,0,1,.54,1,1.59,1.59,0,0,1-.44,1.25,1.49,1.49,0,0,1-1,.38,2.24,2.24,0,0,1-.91-.19,2.27,2.27,0,0,0-.93-.18,2.23,2.23,0,0,0-1,.22,2.53,2.53,0,0,0-.89.7,3.52,3.52,0,0,0-.66,1.16,4.75,4.75,0,0,0-.25,1.64V56a1.61,1.61,0,0,1-.44,1.14A1.55,1.55,0,0,1,152.92,57.59Z"></path><path d="M173.54,38.2a1.57,1.57,0,0,1,1.13.44,1.59,1.59,0,0,1,.44,1.16V56a1.61,1.61,0,0,1-.44,1.14,1.62,1.62,0,0,1-2.26,0A1.61,1.61,0,0,1,172,56V54.71l.58.23a1.54,1.54,0,0,1-.37.83,5.1,5.1,0,0,1-1,.95,5.94,5.94,0,0,1-1.48.8,5.07,5.07,0,0,1-1.85.33,6,6,0,0,1-3.27-.93,6.57,6.57,0,0,1-2.32-2.57,8.79,8.79,0,0,1,0-7.54,6.58,6.58,0,0,1,2.29-2.57,5.78,5.78,0,0,1,3.2-.93,6,6,0,0,1,2.07.34,6.36,6.36,0,0,1,1.64.86,5.12,5.12,0,0,1,1.07,1.06,1.72,1.72,0,0,1,.38.91l-.94.34v-7a1.58,1.58,0,0,1,.44-1.14A1.51,1.51,0,0,1,173.54,38.2ZM168.25,55a3.52,3.52,0,0,0,2-.58,3.89,3.89,0,0,0,1.34-1.57,5.36,5.36,0,0,0,0-4.48,3.82,3.82,0,0,0-1.34-1.57,3.52,3.52,0,0,0-2-.58,3.45,3.45,0,0,0-2,.58,3.77,3.77,0,0,0-1.35,1.57,5.36,5.36,0,0,0,0,4.48,3.83,3.83,0,0,0,1.35,1.57A3.45,3.45,0,0,0,168.25,55Z"></path><path d="M185,57.85a7.69,7.69,0,0,1-3.86-.93,6.45,6.45,0,0,1-2.52-2.53,7.43,7.43,0,0,1-.87-3.62,7.92,7.92,0,0,1,1-4,6.73,6.73,0,0,1,2.5-2.55,6.42,6.42,0,0,1,3.28-.89,5.94,5.94,0,0,1,2.53.55,7,7,0,0,1,2.11,1.5,7.41,7.41,0,0,1,1.45,2.22,6.71,6.71,0,0,1,.54,2.67,1.36,1.36,0,0,1-.5,1,1.67,1.67,0,0,1-1.1.4h-10l-.79-2.62h9.62l-.58.52v-.71a2.37,2.37,0,0,0-.53-1.36,3.68,3.68,0,0,0-1.21-1,3.5,3.5,0,0,0-1.53-.35,5,5,0,0,0-1.47.21,2.86,2.86,0,0,0-1.18.71,3.37,3.37,0,0,0-.78,1.33,6.44,6.44,0,0,0-.29,2.13,4.48,4.48,0,0,0,.59,2.39,4,4,0,0,0,1.52,1.5,4.06,4.06,0,0,0,2,.51,6.26,6.26,0,0,0,1.54-.16,3.14,3.14,0,0,0,.93-.38c.24-.15.45-.28.64-.38a2,2,0,0,1,.89-.24,1.33,1.33,0,0,1,1.34,1.31,1.63,1.63,0,0,1-.73,1.29,6.22,6.22,0,0,1-1.92,1A7.53,7.53,0,0,1,185,57.85Z"></path><path d="M201.31,43.83a1.46,1.46,0,0,1,1.05.41,1.36,1.36,0,0,1,.42,1,1.39,1.39,0,0,1-.42,1,1.45,1.45,0,0,1-1.05.4h-6.94a1.45,1.45,0,0,1-1.05-.4,1.39,1.39,0,0,1-.42-1,1.36,1.36,0,0,1,.42-1,1.46,1.46,0,0,1,1.05-.41ZM201,38.2a3.84,3.84,0,0,1,1.12.16,2,2,0,0,1,.92.51,1.23,1.23,0,0,1,.37.93,1.41,1.41,0,0,1-.38,1,1.24,1.24,0,0,1-.88.38,3.22,3.22,0,0,1-.71-.12,3.67,3.67,0,0,0-.92-.11,1.43,1.43,0,0,0-1.49,1,2.07,2.07,0,0,0-.13.67V56a1.58,1.58,0,0,1-.45,1.14,1.51,1.51,0,0,1-1.12.46,1.53,1.53,0,0,1-1.13-.46,1.57,1.57,0,0,1-.44-1.14V42.63a4.23,4.23,0,0,1,1.31-3.15A5.42,5.42,0,0,1,201,38.2Z"></path><path d="M211,57.85a7.73,7.73,0,0,1-3.87-.93,6.36,6.36,0,0,1-2.51-2.53,7.32,7.32,0,0,1-.88-3.62,7.92,7.92,0,0,1,1-4,6.66,6.66,0,0,1,2.5-2.55,6.39,6.39,0,0,1,3.28-.89,5.86,5.86,0,0,1,2.52.55,6.83,6.83,0,0,1,2.11,1.5,7.44,7.44,0,0,1,1.46,2.22,6.88,6.88,0,0,1,.53,2.67,1.32,1.32,0,0,1-.49,1,1.69,1.69,0,0,1-1.1.4h-10l-.79-2.62h9.62l-.58.52v-.71a2.39,2.39,0,0,0-.54-1.36,3.54,3.54,0,0,0-1.2-1,3.5,3.5,0,0,0-1.53-.35,4.93,4.93,0,0,0-1.47.21,2.79,2.79,0,0,0-1.18.71,3.39,3.39,0,0,0-.79,1.33,6.72,6.72,0,0,0-.29,2.13,4.58,4.58,0,0,0,.59,2.39,4,4,0,0,0,3.5,2,6.35,6.35,0,0,0,1.55-.16,3.39,3.39,0,0,0,.93-.38c.23-.15.45-.28.64-.38a2,2,0,0,1,.89-.24,1.31,1.31,0,0,1,1,.4,1.29,1.29,0,0,1,.38.91,1.65,1.65,0,0,1-.74,1.29,6.15,6.15,0,0,1-1.91,1A7.57,7.57,0,0,1,211,57.85Z"></path><path d="M227.28,43.31a4.63,4.63,0,0,1,2.95.81,4.17,4.17,0,0,1,1.39,2.16,11.19,11.19,0,0,1,.38,3V56a1.58,1.58,0,0,1-.45,1.14,1.53,1.53,0,0,1-1.13.46,1.51,1.51,0,0,1-1.12-.46,1.58,1.58,0,0,1-.45-1.14V49.28a5.11,5.11,0,0,0-.22-1.56,2.19,2.19,0,0,0-.8-1.11,2.75,2.75,0,0,0-1.65-.42,3.46,3.46,0,0,0-1.77.42,2.86,2.86,0,0,0-1.1,1.11,3.27,3.27,0,0,0-.38,1.56V56a1.61,1.61,0,0,1-.44,1.14,1.55,1.55,0,0,1-1.13.46,1.53,1.53,0,0,1-1.13-.46,1.57,1.57,0,0,1-.44-1.14V45.17a1.54,1.54,0,0,1,.44-1.14,1.49,1.49,0,0,1,1.13-.46,1.51,1.51,0,0,1,1.13.46,1.58,1.58,0,0,1,.44,1.14v1.12l-.39-.07a5.05,5.05,0,0,1,.68-1,7,7,0,0,1,1.05-1,5.67,5.67,0,0,1,1.36-.72A4.92,4.92,0,0,1,227.28,43.31Z"></path><path d="M234.51,55.41a1.47,1.47,0,0,1-.23-.94,1.25,1.25,0,0,1,.68-1,1.41,1.41,0,0,1,.89-.22,1.53,1.53,0,0,1,.92.49,5.92,5.92,0,0,0,1.59,1.17,4.68,4.68,0,0,0,2.1.42,5.79,5.79,0,0,0,.86-.11,1.65,1.65,0,0,0,.83-.42,1.31,1.31,0,0,0,.35-1,1.16,1.16,0,0,0-.39-.92,3.35,3.35,0,0,0-1-.58c-.43-.15-.91-.3-1.43-.44s-1.1-.33-1.67-.52a8,8,0,0,1-1.56-.75,3.64,3.64,0,0,1-1.15-1.22,3.7,3.7,0,0,1-.44-1.91,3.44,3.44,0,0,1,.73-2.23,4.76,4.76,0,0,1,1.9-1.41,6,6,0,0,1,2.45-.5,7.91,7.91,0,0,1,1.7.19,6.64,6.64,0,0,1,1.71.63,4.29,4.29,0,0,1,1.36,1.14,1.93,1.93,0,0,1,.34.95,1.13,1.13,0,0,1-.5,1,1.3,1.3,0,0,1-.92.28,1.4,1.4,0,0,1-.86-.36,3.13,3.13,0,0,0-1.19-.91,4.06,4.06,0,0,0-1.72-.34A4.39,4.39,0,0,0,239,46a1.67,1.67,0,0,0-.8.39,1.43,1.43,0,0,0,0,1.91,3,3,0,0,0,1.06.58c.45.15.92.29,1.43.43s1.06.31,1.6.5a6,6,0,0,1,1.49.76,3.5,3.5,0,0,1,1.1,1.22,3.84,3.84,0,0,1,.42,1.9,3.47,3.47,0,0,1-.78,2.28,5,5,0,0,1-2,1.42,6.15,6.15,0,0,1-2.41.49,9.31,9.31,0,0,1-3.09-.54A5.36,5.36,0,0,1,234.51,55.41Z"></path><path d="M254.48,57.85a7.7,7.7,0,0,1-3.87-.93,6.36,6.36,0,0,1-2.51-2.53,7.32,7.32,0,0,1-.88-3.62,7.92,7.92,0,0,1,1-4,6.66,6.66,0,0,1,2.5-2.55,6.39,6.39,0,0,1,3.27-.89,5.91,5.91,0,0,1,2.53.55,6.83,6.83,0,0,1,2.11,1.5,7.44,7.44,0,0,1,1.46,2.22,6.88,6.88,0,0,1,.53,2.67,1.3,1.3,0,0,1-.5,1,1.67,1.67,0,0,1-1.1.4H249l-.79-2.62h9.62l-.58.52v-.71a2.46,2.46,0,0,0-.54-1.36A3.48,3.48,0,0,0,254,46.19a4.91,4.91,0,0,0-1.46.21,2.79,2.79,0,0,0-1.18.71,3.39,3.39,0,0,0-.79,1.33,6.72,6.72,0,0,0-.29,2.13,4.58,4.58,0,0,0,.59,2.39,4,4,0,0,0,3.5,2,6.35,6.35,0,0,0,1.55-.16,3.39,3.39,0,0,0,.93-.38c.23-.15.45-.28.64-.38a2,2,0,0,1,.89-.24,1.31,1.31,0,0,1,1,.4,1.29,1.29,0,0,1,.38.91,1.65,1.65,0,0,1-.74,1.29,6.15,6.15,0,0,1-1.91,1A7.57,7.57,0,0,1,254.48,57.85Z"></path><path class="cls-2" d="M98.8,8.88a2.26,2.26,0,0,1,1.65.64,2.18,2.18,0,0,1,.66,1.63,2.16,2.16,0,0,1-.66,1.63,2.26,2.26,0,0,1-1.65.64H87.86a2.26,2.26,0,0,1-1.65-.64,2.16,2.16,0,0,1-.66-1.63,2.18,2.18,0,0,1,.66-1.63,2.26,2.26,0,0,1,1.65-.64ZM98.35,0a6.21,6.21,0,0,1,1.77.25,3.37,3.37,0,0,1,1.45.8,2,2,0,0,1,.58,1.47,2.2,2.2,0,0,1-.6,1.63,1.9,1.9,0,0,1-1.39.6,4.86,4.86,0,0,1-1.11-.19,6.19,6.19,0,0,0-1.45-.18A2.51,2.51,0,0,0,96,4.83a2.41,2.41,0,0,0-.76,1.06A3.2,3.2,0,0,0,95,6.94V28a2.47,2.47,0,0,1-.7,1.8,2.55,2.55,0,0,1-3.55,0,2.47,2.47,0,0,1-.7-1.8V7a6.69,6.69,0,0,1,2.06-5C93.53.67,95.59,0,98.35,0Z"></path><path class="cls-2" d="M125.11,19.53a11.57,11.57,0,0,1-1.51,6,10.8,10.8,0,0,1-4,4,11.9,11.9,0,0,1-11.35,0,10.8,10.8,0,0,1-4-4,11.57,11.57,0,0,1-1.51-6,11.56,11.56,0,0,1,1.51-6,10.93,10.93,0,0,1,4-4.05,11.69,11.69,0,0,1,11.35,0,10.93,10.93,0,0,1,4,4.05A11.56,11.56,0,0,1,125.11,19.53Zm-5,0a7.54,7.54,0,0,0-.84-3.65A6.46,6.46,0,0,0,117,13.46a6.24,6.24,0,0,0-6.32,0,6.31,6.31,0,0,0-2.27,2.42,7.43,7.43,0,0,0-.85,3.65,7.37,7.37,0,0,0,.85,3.62,6.21,6.21,0,0,0,2.27,2.41,6.17,6.17,0,0,0,6.32,0,6.36,6.36,0,0,0,2.27-2.41A7.47,7.47,0,0,0,120.15,19.53Z"></path><path class="cls-2" d="M129.78,8.47a2.5,2.5,0,0,1,2,1l13.79,17.14a2.27,2.27,0,0,1,.54,1.48,2.36,2.36,0,0,1-.79,1.78,2.42,2.42,0,0,1-3.75-.33l-13.8-17.14a2.27,2.27,0,0,1-.53-1.49A2.3,2.3,0,0,1,128,9.17,2.5,2.5,0,0,1,129.78,8.47Zm0,22.13a2.58,2.58,0,0,1-1.63-.64,1.9,1.9,0,0,1-.81-1.55,2.45,2.45,0,0,1,.62-1.57l6.32-7.72,2.48,4.13-5,6.32A2.39,2.39,0,0,1,129.82,30.6ZM143.57,8.47a2.24,2.24,0,0,1,1.67.68,2.1,2.1,0,0,1,.68,1.55,2.91,2.91,0,0,1-.12.82,2.07,2.07,0,0,1-.46.79l-6.23,7.6-2.6-3.6,5.08-6.73A2.42,2.42,0,0,1,143.57,8.47Z"></path><path class="cls-1" d="M206.11,8.88a2.26,2.26,0,0,1,1.65.64,2.18,2.18,0,0,1,.66,1.63,2.16,2.16,0,0,1-.66,1.63,2.26,2.26,0,0,1-1.65.64H195.17a2.29,2.29,0,0,1-1.66-.64,2.16,2.16,0,0,1-.66-1.63,2.18,2.18,0,0,1,.66-1.63,2.29,2.29,0,0,1,1.66-.64ZM205.66,0a6.26,6.26,0,0,1,1.77.25,3.37,3.37,0,0,1,1.45.8,2,2,0,0,1,.58,1.47,2.2,2.2,0,0,1-.6,1.63,1.9,1.9,0,0,1-1.39.6,4.78,4.78,0,0,1-1.11-.19,6.19,6.19,0,0,0-1.45-.18,2.49,2.49,0,0,0-1.59.45,2.41,2.41,0,0,0-.76,1.06,3.2,3.2,0,0,0-.21,1.05V28a2.47,2.47,0,0,1-.7,1.8,2.55,2.55,0,0,1-3.55,0,2.47,2.47,0,0,1-.7-1.8V7a6.66,6.66,0,0,1,2.06-5C200.84.67,202.9,0,205.66,0Zm8.83,5.78a3.32,3.32,0,0,1-2-.45,2,2,0,0,1-.58-1.61V2.93a1.85,1.85,0,0,1,.64-1.63,3.55,3.55,0,0,1,2-.43,3.4,3.4,0,0,1,2,.45,2,2,0,0,1,.58,1.61v.79a1.87,1.87,0,0,1-.62,1.63A3.62,3.62,0,0,1,214.49,5.78ZM217,28a2.47,2.47,0,0,1-.7,1.8,2.55,2.55,0,0,1-3.55,0,2.47,2.47,0,0,1-.7-1.8V11a2.47,2.47,0,0,1,.7-1.8,2.55,2.55,0,0,1,3.55,0A2.47,2.47,0,0,1,217,11Z"></path><path class="cls-1" d="M220.69,27.13a2.25,2.25,0,0,1-.37-1.48,2,2,0,0,1,1.07-1.57,2.16,2.16,0,0,1,1.41-.35,2.33,2.33,0,0,1,1.44.76,9.75,9.75,0,0,0,2.52,1.86,7.35,7.35,0,0,0,3.3.66,10.91,10.91,0,0,0,1.37-.19,2.53,2.53,0,0,0,1.3-.66,2.06,2.06,0,0,0,.55-1.59,1.82,1.82,0,0,0-.61-1.44,5.29,5.29,0,0,0-1.64-.91c-.67-.25-1.42-.48-2.25-.7s-1.72-.53-2.62-.83a10.74,10.74,0,0,1-2.46-1.18,5.56,5.56,0,0,1-1.81-1.92,5.86,5.86,0,0,1-.71-3,5.44,5.44,0,0,1,1.16-3.51,7.48,7.48,0,0,1,3-2.23,9.85,9.85,0,0,1,3.87-.79,12.91,12.91,0,0,1,2.68.31,10.88,10.88,0,0,1,2.69,1,6.79,6.79,0,0,1,2.14,1.8,2.91,2.91,0,0,1,.54,1.49,1.79,1.79,0,0,1-.79,1.57,2,2,0,0,1-1.44.43,2.16,2.16,0,0,1-1.36-.56,5,5,0,0,0-1.88-1.44,6.46,6.46,0,0,0-2.71-.54,7.36,7.36,0,0,0-1.34.14,2.77,2.77,0,0,0-1.26.62,1.92,1.92,0,0,0-.54,1.51,1.93,1.93,0,0,0,.62,1.51,4.84,4.84,0,0,0,1.68.91c.7.23,1.45.46,2.25.68s1.66.48,2.52.78a10.62,10.62,0,0,1,2.35,1.2,5.7,5.7,0,0,1,1.73,1.92,6.08,6.08,0,0,1,.67,3A5.46,5.46,0,0,1,236.51,28a7.89,7.89,0,0,1-3.1,2.25,9.91,9.91,0,0,1-3.8.76,14.81,14.81,0,0,1-4.87-.84A8.46,8.46,0,0,1,220.69,27.13Z"></path><path class="cls-1" d="M253.36,8.05a7,7,0,0,1,4.52,1.28A6.5,6.5,0,0,1,260,12.74a17.82,17.82,0,0,1,.58,4.73V28a2.47,2.47,0,0,1-.7,1.8,2.55,2.55,0,0,1-3.55,0,2.47,2.47,0,0,1-.7-1.8V17.47A8.51,8.51,0,0,0,255.3,15a3.34,3.34,0,0,0-1.2-1.75,4,4,0,0,0-2.48-.66,5.15,5.15,0,0,0-2.68.66A4.28,4.28,0,0,0,247.26,15a5.36,5.36,0,0,0-.55,2.46V28a2.47,2.47,0,0,1-.71,1.8,2.55,2.55,0,0,1-3.55,0,2.47,2.47,0,0,1-.7-1.8V2.52a2.47,2.47,0,0,1,.7-1.8,2.55,2.55,0,0,1,3.55,0,2.47,2.47,0,0,1,.71,1.8V12.76l-.62-.12a8.83,8.83,0,0,1,1-1.51,9,9,0,0,1,1.61-1.51,8.54,8.54,0,0,1,2.11-1.13A7.1,7.1,0,0,1,253.36,8.05Z"></path><path class="cls-3" d="M59.45,2.34l9.76,30.28a3.16,3.16,0,0,1-.84,3.28L40.6,62.19a3.18,3.18,0,0,1-5.36-2.31V58.5a3.18,3.18,0,0,1,1.38-2.62l.54-.37c9.22-6.32,19.37-14.06,23-32.19h0a3.18,3.18,0,0,0-2-3.6l-8.71-3.21a3.18,3.18,0,0,1-1.66-4.57l5.9-10.21A3.17,3.17,0,0,1,59.45,2.34Z"></path><path class="cls-4" d="M35.38,46.14v1.52A1.63,1.63,0,0,0,38,49,47.28,47.28,0,0,0,48.64,38.66c3.63-5,4.79-8.32,6.33-13.7a1.63,1.63,0,0,0-.9-1.94L37.66,15.73a1.63,1.63,0,0,0-2.28,1.49v1.5a1.62,1.62,0,0,0,1,1.49l12.3,5.45a1.61,1.61,0,0,1,.94,1.79v0a12.59,12.59,0,0,1-.7,2.22,1.64,1.64,0,0,1-2.18.84L43,28.81c-1.06-.48-3.38-1.62-5.28-2.53a1.62,1.62,0,0,0-2.33,1.46v1.05a1.62,1.62,0,0,0,1,1.49c2.26,1,5.58,2.52,8.07,3.63A1.62,1.62,0,0,1,45,36.4,41.5,41.5,0,0,1,40.79,41a42,42,0,0,1-4.71,3.8A1.61,1.61,0,0,0,35.38,46.14Z"></path><path class="cls-5" d="M9.91,2.2.15,32.48A3.18,3.18,0,0,0,1,35.76L28.77,62.05a3.17,3.17,0,0,0,5.36-2.3V58.36a3.18,3.18,0,0,0-1.38-2.62l-.54-.37C23,49.05,12.83,41.31,9.2,23.19h0a3.18,3.18,0,0,1,2-3.61l8.71-3.2a3.17,3.17,0,0,0,1.65-4.57L15.69,1.59A3.18,3.18,0,0,0,9.91,2.2Z"></path><path class="cls-6" d="M34,46v1.53a1.63,1.63,0,0,1-2.58,1.32A47.29,47.29,0,0,1,20.73,38.52c-3.63-5-4.79-8.32-6.34-13.7a1.64,1.64,0,0,1,.9-1.94L31.7,15.59A1.63,1.63,0,0,1,34,17.08v1.5a1.63,1.63,0,0,1-1,1.49L20.71,25.51a1.62,1.62,0,0,0-.93,1.8h0a11.36,11.36,0,0,0,.7,2.22,1.61,1.61,0,0,0,2.17.84l3.73-1.71c1.05-.49,3.37-1.62,5.27-2.54A1.63,1.63,0,0,1,34,27.6v1a1.63,1.63,0,0,1-1,1.49c-2.25,1-5.57,2.52-8.07,3.62a1.63,1.63,0,0,0-.61,2.5,40.55,40.55,0,0,0,4.25,4.6,39.9,39.9,0,0,0,4.71,3.79A1.64,1.64,0,0,1,34,46Z"></path></g></g></svg>