<?xml version="1.0" encoding="UTF-8" standalone="no"?>
<svg
   width="100.99621mm"
   height="18.256365mm"
   version="1.1"
   viewBox="0 0 100.99621 18.256365"
   id="svg11917"
   sodipodi:docname="guardsquare.svg"
   inkscape:version="1.2.2 (b0a8486541, 2022-12-01)"
   xmlns:inkscape="http://www.inkscape.org/namespaces/inkscape"
   xmlns:sodipodi="http://sodipodi.sourceforge.net/DTD/sodipodi-0.dtd"
   xmlns="http://www.w3.org/2000/svg"
   xmlns:svg="http://www.w3.org/2000/svg">
  <sodipodi:namedview
     id="namedview11919"
     pagecolor="#ffffff"
     bordercolor="#000000"
     borderopacity="0.25"
     inkscape:showpageshadow="2"
     inkscape:pageopacity="0.0"
     inkscape:pagecheckerboard="0"
     inkscape:deskcolor="#d1d1d1"
     inkscape:document-units="mm"
     showgrid="false"
     inkscape:zoom="1.8056175"
     inkscape:cx="-17.168642"
     inkscape:cy="156.17926"
     inkscape:window-width="1920"
     inkscape:window-height="1131"
     inkscape:window-x="0"
     inkscape:window-y="0"
     inkscape:window-maximized="1"
     inkscape:current-layer="g11787" />
  <defs
     id="defs11701">
    <clipPath
       id="d">
      <path
         d="M 0,0 H 595.28 V 841.89 H 0 Z"
         id="path11677" />
    </clipPath>
    <clipPath
       id="c">
      <path
         d="M 0,0 H 595.28 V 841.89 H 0 Z"
         id="path11680" />
    </clipPath>
    <clipPath
       id="b">
      <path
         d="M 0,0 H 595.28 V 841.89 H 0 Z"
         id="path11683" />
    </clipPath>
    <clipPath
       id="a">
      <path
         d="M 0,0 H 595.28 V 841.89 H 0 Z"
         id="path11686" />
    </clipPath>
    <clipPath
       id="h">
      <path
         d="M 0,0 H 595.28 V 841.89 H 0 Z"
         id="path11689" />
    </clipPath>
    <clipPath
       id="g">
      <path
         d="M 0,0 H 595.28 V 841.89 H 0 Z"
         id="path11692" />
    </clipPath>
    <clipPath
       id="f">
      <path
         d="M 0,0 H 595.28 V 841.89 H 0 Z"
         id="path11695" />
    </clipPath>
    <clipPath
       id="e">
      <path
         d="M 0,0 H 595.28 V 841.89 H 0 Z"
         id="path11698" />
    </clipPath>
  </defs>
  <g
     transform="translate(103.35507,-173.34752)"
     id="g11915">
    <g
       transform="matrix(0.71256129,0,0,-0.71256129,-407.85104,208.80298)"
       id="g11725">
      <g
         clip-path="url(#d)"
         id="g11723">
        <g
           transform="translate(455.84,39.459)"
           id="g11705">
          <path
             d="m 0,0 h 2.518 c -0.081,-1.115 -1.045,-1.946 -2.562,-1.968 -0.03,-0.001 -0.06,-0.001 -0.091,-0.001 -1.693,0.008 -2.654,1.135 -2.654,3.463 0,2.443 1,3.501 2.77,3.501 1.366,0 2.077,-0.712 2.27,-1.577 h 2.443 c -0.327,2.424 -2.366,3.655 -4.79,3.655 -2.463,0 -5.137,-1.328 -5.137,-5.579 0,-3.137 1.543,-5.5 4.965,-5.541 h 0.331 c 2.742,0 4.708,1.573 4.749,4.262 L 4.829,1.847 H 0 Z"
             fill="#165096"
             id="path11703" />
        </g>
        <g
           transform="translate(493.25,42.703)"
           id="g11709">
          <path
             d="M 0,0 C 0,2.501 -1.847,3.636 -4.867,3.636 H -8.619 V -7.099 h 2.444 v 3.463 h 1.635 l 2.231,-3.463 H 0.5 l -2.731,3.963 C -0.923,-2.655 0,-1.693 0,0 m -4.886,-1.635 h -1.289 v 3.27 h 1.289 c 1.693,0 2.347,-0.481 2.347,-1.635 0,-1.173 -0.654,-1.635 -2.347,-1.635"
             fill="#165096"
             id="path11707" />
        </g>
        <g
           transform="translate(499.24,46.339)"
           id="g11713">
          <path
             d="M 0,0 H -3.828 V -10.735 H 0 c 3.694,0 5.444,2.155 5.444,5.368 C 5.444,-2.155 3.694,0 0,0 m -0.038,-8.734 h -1.347 v 6.733 h 1.347 c 2.404,0 2.962,-1.731 2.962,-3.366 0,-1.636 -0.558,-3.367 -2.962,-3.367"
             fill="#165096"
             id="path11711" />
        </g>
        <g
           transform="translate(512.18,41.741)"
           id="g11717">
          <path
             d="M 0,0 -2.155,0.577 C -3.194,0.866 -3.54,1.25 -3.54,1.809 c 0,0.692 0.539,1.115 1.539,1.115 1.02,0 1.905,-0.442 1.982,-1.558 H 2.443 C 2.27,3.694 0.5,4.79 -1.847,4.79 c -2.116,0 -4.136,-0.885 -4.136,-3.155 0,-1.577 0.981,-2.558 2.77,-3.039 l 2.155,-0.577 c 1,-0.27 1.404,-0.674 1.404,-1.27 0,-0.731 -0.654,-1.212 -1.808,-1.212 -1.174,0 -2.193,0.481 -2.289,1.635 h -2.482 c 0.173,-2.251 1.962,-3.501 4.636,-3.501 2.232,0 4.386,0.866 4.386,3.27 C 2.789,-1.366 1.712,-0.462 0,0"
             fill="#165096"
             id="path11715" />
        </g>
        <g
           transform="translate(535.09,39.914)"
           id="g11721">
          <path
             d="m 0,0 c 0,-1.75 -0.692,-2.385 -2.174,-2.385 -1.481,0 -2.174,0.635 -2.174,2.385 V 6.426 H -6.791 V -0.25 c 0,-2.982 1.732,-4.251 4.617,-4.251 2.867,0 4.617,1.269 4.617,4.251 V 6.426 H 0 Z"
             fill="#165096"
             id="path11719" />
        </g>
      </g>
    </g>
    <g
       transform="matrix(0.71256129,0,0,-0.71256129,-21.260582,175.79869)"
       id="g11729">
      <path
         d="m 0,0 -3.944,-10.735 h 2.482 l 0.654,1.943 h 4.213 l 0.673,-1.943 H 6.637 L 2.693,0 Z m -0.211,-6.945 1.5,4.521 1.52,-4.521 z"
         fill="#165096"
         id="path11727" />
    </g>
    <g
       transform="matrix(0.71256129,0,0,-0.71256129,-407.85104,208.80298)"
       id="g11737">
      <g
         clip-path="url(#c)"
         id="g11735">
        <g
           transform="translate(559.2,42.703)"
           id="g11733">
          <path
             d="M 0,0 C 0,2.501 -1.847,3.636 -4.867,3.636 H -8.619 V -7.099 h 2.444 v 3.463 h 1.635 l 2.232,-3.463 H 0.5 l -2.732,3.963 C -0.923,-2.655 0,-1.693 0,0 m -4.886,-1.635 h -1.289 v 3.27 h 1.289 c 1.692,0 2.347,-0.481 2.347,-1.635 0,-1.173 -0.655,-1.635 -2.347,-1.635"
             fill="#165096"
             id="path11731" />
        </g>
      </g>
    </g>
    <g
       transform="matrix(0.71256129,0,0,-0.71256129,-2.3588628,177.25298)"
       id="g11741">
      <path
         d="M 0,0 V 2.058 H -7.695 V -8.676 H 0 v 2.058 h -5.252 v 2.386 H -1 v 2.058 H -5.252 V 0 Z"
         fill="#165096"
         id="path11739" />
    </g>
    <g
       transform="matrix(0.71256129,0,0,-0.71256129,-407.85104,208.80298)"
       id="g11749">
      <g
         clip-path="url(#b)"
         id="g11747">
        <g
           transform="translate(469.21,39.914)"
           id="g11745">
          <path
             d="m 0,0 c 0,-1.75 -0.693,-2.385 -2.174,-2.385 -1.481,0 -2.174,0.635 -2.174,2.385 V 6.426 H -6.791 V -0.25 c 0,-2.982 1.731,-4.251 4.617,-4.251 2.866,0 4.617,1.269 4.617,4.251 V 6.426 H 0 Z"
             fill="#165096"
             id="path11743" />
        </g>
      </g>
    </g>
    <g
       transform="matrix(0.71256129,0,0,-0.71256129,-68.2523,175.79869)"
       id="g11753">
      <path
         d="m 0,0 -3.944,-10.735 h 2.482 l 0.654,1.943 h 4.213 l 0.674,-1.943 H 6.637 L 2.693,0 Z m -0.211,-6.945 1.5,4.521 1.52,-4.521 z"
         fill="#165096"
         id="path11751" />
    </g>
    <g
       transform="matrix(0.35278,0,0,-0.35278,-228.61,195.51)"
       id="g11789">
      <g
         clip-path="url(#a)"
         id="g11787">
        <g
           transform="matrix(2.019846,0,0,2.019846,552.60013,36.698173)"
           id="g11757">
          <path
             d="m 0,0 c 0.937,0.978 1.402,2.414 1.402,4.147 0,3.329 -1.712,5.56 -5.195,5.56 -3.481,0 -5.194,-2.231 -5.194,-5.56 0,-3.327 1.713,-5.559 5.194,-5.559 0.626,0 1.195,0.072 1.707,0.21 0.029,-0.02 0.061,-0.039 0.096,-0.057 l 2.591,-1.38 c 0.311,-0.16 0.614,-0.158 0.941,0.014 L 3.188,-1.75 0.267,-0.197 C 0.152,-0.137 0.064,-0.073 0,0 m -3.793,0.704 c -2.154,0 -2.673,1.751 -2.673,3.443 0,1.693 0.519,3.444 2.673,3.444 2.155,0 2.675,-1.751 2.675,-3.444 0,-1.692 -0.52,-3.443 -2.675,-3.443"
             fill="#165096"
             id="path11755" />
        </g>
        <g
           transform="matrix(2.019846,0,0,2.019846,370.10704,62.105817)"
           id="g11761">
          <path
             d="M 0,0 C 0.896,0.476 1.382,0.463 2.226,0.021 L 5.2,-1.56 -2.02,-5.399 c -0.805,-0.433 -1.139,-1.009 -1.139,-1.799 v -3.947 c -0.002,-1.002 -0.373,-1.48 -1.277,-1.957 l -2.263,-1.206 c -0.465,-0.244 -0.754,-0.074 -0.755,0.377 v 8.777 c 10e-4,0.895 0.255,1.323 1.017,1.731 z"
             fill="#165096"
             id="path11759" />
        </g>
        <g
           transform="matrix(2.019846,0,0,2.019846,378.22682,27.364465)"
           id="g11765">
          <path
             d="M 0,0 C -0.591,-0.305 -1.168,-0.3 -1.788,0.026 L -4.917,1.69 0.635,4.641 c 0.55,0.292 0.773,0.616 0.776,1.178 L 1.404,8.214 c 0.004,0.888 0.304,1.293 1.023,1.675 l 2.545,1.353 c 0.433,0.229 0.73,0.069 0.728,-0.37 V 3.817 C 5.702,3.326 5.487,2.918 4.925,2.623 Z"
             fill="#165096"
             id="path11763" />
        </g>
        <g
           transform="matrix(2.019846,0,0,2.019846,375.15665,51.713709)"
           id="g11769">
          <path
             d="M 0,0 C 0.488,0.26 0.78,0.177 0.778,-0.325 V -5.269 C 0.779,-5.745 0.593,-6.099 0.286,-6.262 l -2.757,-1.465 c -0.673,-0.358 -1.046,-0.188 -1.046,0.356 v 4.798 c 10e-4,0.485 0.196,0.807 0.64,1.044 z"
             fill="#27adea"
             id="path11767" />
        </g>
        <g
           transform="matrix(2.019846,0,0,2.019846,451.931,16.693618)"
           id="g11773">
          <path
             d="M 0,0 H -0.029 L -1.527,4.186 H -2.652 V -1.03 h 0.716 v 2.944 c 0,0.18 -0.002,0.367 -0.007,0.559 -0.005,0.192 -0.011,0.37 -0.019,0.533 -0.007,0.164 -0.015,0.296 -0.025,0.398 h 0.029 L -0.38,-1.03 H 0.3 L 1.922,3.397 H 1.951 C 1.946,3.29 1.94,3.156 1.933,2.995 1.925,2.835 1.918,2.664 1.91,2.484 1.903,2.304 1.9,2.128 1.9,1.958 V -1.03 H 2.667 V 4.186 H 1.542 Z"
             fill="#176fc1"
             id="path11771" />
        </g>
        <g
           transform="matrix(2.019846,0,0,2.019846,464.79742,22.236075)"
           id="g11777">
          <path
             d="m 0,0 c -0.275,0.158 -0.593,0.237 -0.953,0.237 -0.575,0 -1.028,-0.176 -1.359,-0.529 -0.331,-0.353 -0.497,-0.856 -0.497,-1.509 0,-0.438 0.079,-0.81 0.237,-1.114 0.159,-0.305 0.375,-0.536 0.651,-0.694 0.275,-0.158 0.59,-0.238 0.946,-0.238 0.57,0 1.023,0.178 1.359,0.534 0.336,0.355 0.504,0.859 0.504,1.512 0,0.438 -0.08,0.809 -0.238,1.111 C 0.492,-0.388 0.275,-0.158 0,0 m -0.161,-2.838 c -0.168,-0.249 -0.434,-0.373 -0.8,-0.373 -0.365,0 -0.632,0.124 -0.8,0.373 -0.168,0.248 -0.252,0.594 -0.252,1.037 0,0.448 0.083,0.793 0.249,1.034 0.165,0.241 0.431,0.362 0.796,0.362 0.37,0 0.639,-0.121 0.807,-0.362 0.168,-0.241 0.252,-0.586 0.252,-1.034 0,-0.443 -0.084,-0.789 -0.252,-1.037"
             fill="#176fc1"
             id="path11775" />
        </g>
        <g
           transform="matrix(2.019846,0,0,2.019846,472.16986,22.70064)"
           id="g11781">
          <path
             d="m 0,0 c -0.302,0 -0.548,-0.056 -0.738,-0.168 -0.19,-0.112 -0.341,-0.251 -0.453,-0.417 h -0.036 c 0.009,0.078 0.018,0.192 0.025,0.34 0.008,0.149 0.011,0.301 0.011,0.457 v 1.337 h -0.774 v -5.553 h 0.57 l 0.146,0.482 h 0.058 c 0.112,-0.151 0.262,-0.281 0.449,-0.39 0.188,-0.11 0.433,-0.165 0.735,-0.165 0.472,0 0.854,0.172 1.147,0.515 0.292,0.344 0.438,0.854 0.438,1.531 0,0.672 -0.145,1.179 -0.435,1.519 C 0.854,-0.171 0.473,0 0,0 m 0.544,-3.076 c -0.158,-0.243 -0.395,-0.365 -0.712,-0.365 -0.394,0 -0.664,0.12 -0.807,0.361 -0.144,0.242 -0.216,0.589 -0.216,1.042 v 0.058 c 0.005,0.458 0.08,0.798 0.227,1.019 0.146,0.222 0.407,0.332 0.781,0.332 0.643,0 0.965,-0.464 0.965,-1.395 0,-0.458 -0.079,-0.808 -0.238,-1.052"
             fill="#176fc1"
             id="path11779" />
        </g>
        <g
           transform="matrix(2.019846,0,0,2.019846,477.76483,25.59306)"
           id="g11785">
          <path
             d="m 0,0 c -0.122,0 -0.227,-0.034 -0.314,-0.102 -0.088,-0.068 -0.132,-0.183 -0.132,-0.344 0,-0.155 0.044,-0.269 0.132,-0.339 0.087,-0.071 0.192,-0.106 0.314,-0.106 0.117,0 0.219,0.035 0.307,0.106 0.087,0.07 0.131,0.184 0.131,0.339 0,0.161 -0.044,0.276 -0.131,0.344 C 0.219,-0.034 0.117,0 0,0"
             fill="#176fc1"
             id="path11783" />
        </g>
      </g>
    </g>
    <g
       transform="matrix(0.71256129,0,0,-0.71256129,-60.336524,187.55419)"
       id="g11793">
      <path
         d="M 0,0 V -3.938 H 0.775 V 0 Z"
         fill="#176fc1"
         id="path11791" />
    </g>
    <g
       transform="matrix(0.71256129,0,0,-0.71256129,-59.051902,186.40288)"
       id="g11797">
      <path
         d="M 0,0 V -5.552 H 0.775 V 0 Z"
         fill="#176fc1"
         id="path11795" />
    </g>
    <g
       transform="matrix(0.71256129,0,0,-0.71256129,-407.85104,208.80298)"
       id="g11817">
      <g
         clip-path="url(#h)"
         id="g11815">
        <g
           transform="translate(492.85,29.901)"
           id="g11801">
          <path
             d="m 0,0 c -0.355,0 -0.666,-0.082 -0.931,-0.245 -0.266,-0.163 -0.473,-0.398 -0.621,-0.705 -0.149,-0.307 -0.223,-0.682 -0.223,-1.125 0,-0.443 0.081,-0.813 0.245,-1.11 0.163,-0.297 0.39,-0.522 0.683,-0.672 0.292,-0.152 0.628,-0.227 1.008,-0.227 0.277,0 0.516,0.021 0.716,0.062 0.2,0.042 0.399,0.108 0.599,0.201 v 0.643 C 1.266,-3.271 1.063,-3.34 0.866,-3.386 0.669,-3.433 0.443,-3.456 0.19,-3.456 c -0.365,0 -0.649,0.107 -0.851,0.322 -0.202,0.214 -0.308,0.523 -0.318,0.927 h 2.645 v 0.424 c 0,0.551 -0.149,0.986 -0.446,1.305 C 0.923,-0.159 0.516,0 0,0 m -0.964,-1.637 c 0.029,0.332 0.128,0.588 0.296,0.768 0.168,0.18 0.39,0.27 0.668,0.27 0.302,0 0.525,-0.096 0.669,-0.289 0.143,-0.192 0.218,-0.442 0.222,-0.749 z"
             fill="#176fc1"
             id="path11799" />
        </g>
        <g
           transform="translate(498.54,29.901)"
           id="g11805">
          <path
             d="M 0,0 C -0.263,0 -0.515,-0.033 -0.756,-0.099 -0.997,-0.164 -1.21,-0.246 -1.395,-0.343 l 0.248,-0.563 c 0.17,0.083 0.348,0.154 0.533,0.212 0.186,0.058 0.378,0.088 0.578,0.088 0.238,0 0.423,-0.06 0.555,-0.179 0.131,-0.12 0.197,-0.323 0.197,-0.611 V -1.615 L 0.044,-1.637 c -0.624,-0.019 -1.087,-0.132 -1.392,-0.339 -0.304,-0.207 -0.457,-0.513 -0.457,-0.917 0,-0.409 0.117,-0.71 0.351,-0.903 0.234,-0.192 0.529,-0.288 0.884,-0.288 0.331,0 0.591,0.05 0.778,0.15 0.188,0.099 0.367,0.257 0.537,0.471 h 0.029 l 0.154,-0.548 h 0.548 v 2.667 c 0,0.463 -0.123,0.802 -0.369,1.019 C 0.861,-0.108 0.492,0 0,0 m 0.709,-2.462 c 0,-0.341 -0.101,-0.597 -0.304,-0.767 -0.202,-0.171 -0.454,-0.256 -0.756,-0.256 -0.194,0 -0.353,0.046 -0.475,0.139 -0.121,0.092 -0.182,0.241 -0.182,0.445 0,0.23 0.086,0.41 0.259,0.541 0.173,0.132 0.484,0.207 0.932,0.227 l 0.526,0.014 z"
             fill="#176fc1"
             id="path11803" />
        </g>
        <g
           transform="translate(502.99,29.901)"
           id="g11809">
          <path
             d="m 0,0 c -0.307,0 -0.554,-0.058 -0.742,-0.175 -0.187,-0.117 -0.337,-0.258 -0.449,-0.424 h -0.037 l -0.109,0.526 h -0.628 v -5.691 h 0.774 v 1.607 c 0,0.092 -0.006,0.198 -0.018,0.318 -0.012,0.119 -0.023,0.223 -0.033,0.31 h 0.051 c 0.112,-0.151 0.263,-0.281 0.453,-0.391 0.19,-0.109 0.433,-0.164 0.731,-0.164 0.472,0 0.854,0.174 1.147,0.522 0.292,0.349 0.438,0.856 0.438,1.524 0,0.677 -0.144,1.186 -0.431,1.527 C 0.86,-0.171 0.477,0 0,0 m 0.548,-3.054 c -0.156,-0.263 -0.395,-0.394 -0.716,-0.394 -0.39,0 -0.658,0.121 -0.804,0.365 -0.146,0.243 -0.219,0.594 -0.219,1.052 v 0.117 c 0.005,0.433 0.083,0.755 0.234,0.964 0.151,0.21 0.409,0.314 0.774,0.314 0.326,0 0.569,-0.124 0.727,-0.372 0.158,-0.249 0.238,-0.587 0.238,-1.016 0,-0.424 -0.078,-0.767 -0.234,-1.03"
             fill="#176fc1"
             id="path11807" />
        </g>
        <g
           transform="translate(507.33,29.901)"
           id="g11813">
          <path
             d="m 0,0 c -0.307,0 -0.554,-0.058 -0.742,-0.175 -0.187,-0.117 -0.337,-0.258 -0.449,-0.424 h -0.036 l -0.11,0.526 h -0.628 v -5.691 h 0.774 v 1.607 c 0,0.092 -0.006,0.198 -0.018,0.318 -0.012,0.119 -0.023,0.223 -0.033,0.31 h 0.051 c 0.112,-0.151 0.263,-0.281 0.453,-0.391 0.19,-0.109 0.433,-0.164 0.731,-0.164 0.472,0 0.854,0.174 1.147,0.522 0.292,0.349 0.438,0.856 0.438,1.524 0,0.677 -0.144,1.186 -0.431,1.527 C 0.86,-0.171 0.477,0 0,0 m 0.548,-3.054 c -0.156,-0.263 -0.395,-0.394 -0.716,-0.394 -0.39,0 -0.658,0.121 -0.804,0.365 -0.146,0.243 -0.219,0.594 -0.219,1.052 v 0.117 c 0.005,0.433 0.083,0.755 0.234,0.964 0.151,0.21 0.409,0.314 0.774,0.314 0.327,0 0.569,-0.124 0.727,-0.372 0.159,-0.249 0.238,-0.587 0.238,-1.016 0,-0.424 -0.078,-0.767 -0.234,-1.03"
             fill="#176fc1"
             id="path11811" />
        </g>
      </g>
    </g>
    <g
       transform="matrix(0.71256129,0,0,-0.71256129,-44.64232,186.40288)"
       id="g11821">
      <path
         d="M 0,0 V -5.552 H 0.775 V 0 Z"
         fill="#176fc1"
         id="path11819" />
    </g>
    <g
       transform="matrix(0.71256129,0,0,-0.71256129,-43.355678,187.55419)"
       id="g11825">
      <path
         d="M 0,0 V -3.938 H 0.775 V 0 Z"
         fill="#176fc1"
         id="path11823" />
    </g>
    <g
       transform="matrix(0.71256129,0,0,-0.71256129,-407.85104,208.80298)"
       id="g11849">
      <g
         clip-path="url(#g)"
         id="g11847">
        <g
           transform="translate(511.92,31.326)"
           id="g11829">
          <path
             d="m 0,0 c -0.122,0 -0.226,-0.034 -0.314,-0.102 -0.088,-0.068 -0.132,-0.183 -0.132,-0.344 0,-0.155 0.044,-0.269 0.132,-0.339 0.088,-0.071 0.192,-0.106 0.314,-0.106 0.117,0 0.219,0.035 0.307,0.106 0.087,0.07 0.131,0.184 0.131,0.339 0,0.161 -0.044,0.276 -0.131,0.344 C 0.219,-0.034 0.117,0 0,0"
             fill="#176fc1"
             id="path11827" />
        </g>
        <g
           transform="translate(514.96,29.243)"
           id="g11833">
          <path
             d="M 0,0 C 0.141,0 0.287,-0.021 0.438,-0.062 0.589,-0.103 0.733,-0.148 0.87,-0.197 L 1.103,0.431 C 0.977,0.494 0.817,0.548 0.625,0.592 0.432,0.636 0.227,0.658 0.007,0.658 c -0.36,0 -0.681,-0.072 -0.964,-0.216 -0.282,-0.144 -0.504,-0.367 -0.665,-0.668 -0.161,-0.303 -0.241,-0.697 -0.241,-1.184 0,-0.696 0.166,-1.207 0.497,-1.531 0.331,-0.324 0.77,-0.486 1.315,-0.486 0.239,0 0.441,0.02 0.606,0.059 0.166,0.039 0.319,0.1 0.461,0.183 v 0.672 C 0.874,-2.591 0.718,-2.655 0.548,-2.703 0.378,-2.752 0.185,-2.776 -0.029,-2.776 c -0.341,0 -0.599,0.117 -0.775,0.351 -0.175,0.233 -0.263,0.574 -0.263,1.022 C -1.067,-0.468 -0.711,0 0,0"
             fill="#176fc1"
             id="path11831" />
        </g>
        <g
           transform="translate(518.25,29.901)"
           id="g11837">
          <path
             d="m 0,0 c -0.263,0 -0.515,-0.033 -0.756,-0.099 -0.241,-0.065 -0.454,-0.147 -0.64,-0.244 l 0.249,-0.563 c 0.17,0.083 0.348,0.154 0.533,0.212 0.185,0.058 0.378,0.088 0.578,0.088 0.238,0 0.423,-0.06 0.554,-0.179 0.132,-0.12 0.198,-0.323 0.198,-0.611 V -1.615 L 0.044,-1.637 c -0.624,-0.019 -1.088,-0.132 -1.392,-0.339 -0.304,-0.207 -0.457,-0.513 -0.457,-0.917 0,-0.409 0.117,-0.71 0.351,-0.903 0.234,-0.192 0.529,-0.288 0.884,-0.288 0.331,0 0.591,0.05 0.778,0.15 0.188,0.099 0.367,0.257 0.537,0.471 h 0.029 l 0.154,-0.548 h 0.548 v 2.667 c 0,0.463 -0.123,0.802 -0.369,1.019 C 0.861,-0.108 0.492,0 0,0 m 0.709,-2.462 c 0,-0.341 -0.101,-0.597 -0.304,-0.767 -0.202,-0.171 -0.454,-0.256 -0.756,-0.256 -0.195,0 -0.353,0.046 -0.475,0.139 -0.122,0.092 -0.182,0.241 -0.182,0.445 0,0.23 0.086,0.41 0.259,0.541 0.173,0.132 0.483,0.207 0.932,0.227 l 0.526,0.014 z"
             fill="#176fc1"
             id="path11835" />
        </g>
        <g
           transform="translate(521.74,26.599)"
           id="g11841">
          <path
             d="M 0,0 C -0.105,0.102 -0.157,0.26 -0.157,0.475 V 2.637 H 0.968 V 3.229 H -0.157 V 4.113 H -0.632 L -0.902,3.28 -1.479,2.988 V 2.637 h 0.548 V 0.46 c 0,-0.321 0.053,-0.572 0.16,-0.752 0.107,-0.181 0.25,-0.307 0.428,-0.38 0.177,-0.073 0.373,-0.11 0.588,-0.11 0.141,0 0.282,0.014 0.424,0.04 0.141,0.027 0.253,0.06 0.336,0.099 v 0.584 C 0.829,-0.122 0.632,-0.153 0.413,-0.153 0.242,-0.153 0.105,-0.102 0,0"
             fill="#176fc1"
             id="path11839" />
        </g>
        <g
           transform="translate(523.74,31.326)"
           id="g11845">
          <path
             d="m 0,0 c -0.122,0 -0.226,-0.034 -0.314,-0.102 -0.088,-0.068 -0.132,-0.183 -0.132,-0.344 0,-0.155 0.044,-0.269 0.132,-0.339 0.088,-0.071 0.192,-0.106 0.314,-0.106 0.117,0 0.219,0.035 0.307,0.106 0.087,0.07 0.131,0.184 0.131,0.339 0,0.161 -0.044,0.276 -0.131,0.344 C 0.219,-0.034 0.117,0 0,0"
             fill="#176fc1"
             id="path11843" />
        </g>
      </g>
    </g>
    <g
       transform="matrix(0.71256129,0,0,-0.71256129,-34.92686,187.55419)"
       id="g11853">
      <path
         d="M 0,0 V -3.938 H 0.774 V 0 Z"
         fill="#176fc1"
         id="path11851" />
    </g>
    <g
       transform="matrix(0.71256129,0,0,-0.71256129,-407.85104,208.80298)"
       id="g11897">
      <g
         clip-path="url(#f)"
         id="g11895">
        <g
           transform="translate(527.74,29.664)"
           id="g11857">
          <path
             d="m 0,0 c -0.275,0.158 -0.593,0.237 -0.953,0.237 -0.575,0 -1.028,-0.176 -1.359,-0.529 -0.332,-0.353 -0.497,-0.856 -0.497,-1.509 0,-0.438 0.079,-0.81 0.237,-1.114 0.159,-0.305 0.375,-0.536 0.65,-0.694 0.276,-0.158 0.591,-0.238 0.947,-0.238 0.569,0 1.022,0.178 1.359,0.534 0.336,0.355 0.504,0.859 0.504,1.512 0,0.438 -0.08,0.809 -0.238,1.111 C 0.492,-0.388 0.275,-0.158 0,0 m -0.161,-2.838 c -0.168,-0.249 -0.434,-0.373 -0.8,-0.373 -0.365,0 -0.632,0.124 -0.8,0.373 -0.168,0.248 -0.252,0.594 -0.252,1.037 0,0.448 0.083,0.793 0.249,1.034 0.165,0.241 0.431,0.362 0.796,0.362 0.37,0 0.639,-0.121 0.807,-0.362 0.168,-0.241 0.252,-0.586 0.252,-1.034 0,-0.443 -0.084,-0.789 -0.252,-1.037"
             fill="#176fc1"
             id="path11855" />
        </g>
        <g
           transform="translate(531.41,29.901)"
           id="g11861">
          <path
             d="m 0,0 c -0.248,0 -0.483,-0.049 -0.705,-0.146 -0.222,-0.098 -0.396,-0.248 -0.522,-0.453 h -0.044 l -0.11,0.526 h -0.614 v -3.938 h 0.775 v 1.987 c 0,0.448 0.077,0.792 0.23,1.03 0.153,0.239 0.43,0.358 0.829,0.358 0.541,0 0.811,-0.307 0.811,-0.92 v -2.455 h 0.767 v 2.564 c 0,0.507 -0.121,0.875 -0.365,1.104 C 0.808,-0.114 0.458,0 0,0"
             fill="#176fc1"
             id="path11859" />
        </g>
        <g
           transform="translate(537.52,29.901)"
           id="g11865">
          <path
             d="m 0,0 c -0.307,0 -0.554,-0.058 -0.742,-0.175 -0.187,-0.117 -0.337,-0.258 -0.449,-0.424 h -0.036 l -0.11,0.526 h -0.628 v -5.691 h 0.774 v 1.607 c 0,0.092 -0.006,0.198 -0.018,0.318 -0.012,0.119 -0.023,0.223 -0.033,0.31 h 0.051 c 0.112,-0.151 0.263,-0.281 0.453,-0.391 0.19,-0.109 0.434,-0.164 0.731,-0.164 0.472,0 0.855,0.174 1.147,0.522 0.292,0.349 0.438,0.856 0.438,1.524 0,0.677 -0.143,1.186 -0.431,1.527 C 0.86,-0.171 0.477,0 0,0 m 0.548,-3.054 c -0.156,-0.263 -0.395,-0.394 -0.716,-0.394 -0.389,0 -0.657,0.121 -0.804,0.365 -0.146,0.243 -0.219,0.594 -0.219,1.052 v 0.117 c 0.005,0.433 0.083,0.755 0.234,0.964 0.151,0.21 0.409,0.314 0.775,0.314 0.326,0 0.568,-0.124 0.727,-0.372 0.158,-0.249 0.237,-0.587 0.237,-1.016 0,-0.424 -0.078,-0.767 -0.234,-1.03"
             fill="#176fc1"
             id="path11863" />
        </g>
        <g
           transform="translate(541.14,29.671)"
           id="g11869">
          <path
             d="m 0,0 c -0.204,-0.153 -0.368,-0.335 -0.49,-0.544 h -0.028 l -0.103,0.701 h -0.614 v -3.938 h 0.775 v 2.075 c 0,0.258 0.052,0.479 0.157,0.661 0.105,0.183 0.242,0.323 0.413,0.42 0.17,0.098 0.355,0.147 0.555,0.147 0.136,0 0.268,-0.018 0.394,-0.052 L 1.14,0.194 C 1.008,0.218 0.865,0.23 0.709,0.23 0.441,0.23 0.205,0.154 0,0"
             fill="#176fc1"
             id="path11867" />
        </g>
        <g
           transform="translate(545.26,29.664)"
           id="g11873">
          <path
             d="m 0,0 c -0.275,0.158 -0.593,0.237 -0.953,0.237 -0.575,0 -1.028,-0.176 -1.359,-0.529 -0.332,-0.353 -0.497,-0.856 -0.497,-1.509 0,-0.438 0.079,-0.81 0.237,-1.114 0.159,-0.305 0.375,-0.536 0.651,-0.694 0.275,-0.158 0.59,-0.238 0.946,-0.238 0.569,0 1.022,0.178 1.359,0.534 0.336,0.355 0.504,0.859 0.504,1.512 0,0.438 -0.079,0.809 -0.238,1.111 C 0.492,-0.388 0.275,-0.158 0,0 m -0.161,-2.838 c -0.168,-0.249 -0.434,-0.373 -0.8,-0.373 -0.365,0 -0.632,0.124 -0.8,0.373 -0.168,0.248 -0.252,0.594 -0.252,1.037 0,0.448 0.083,0.793 0.249,1.034 0.165,0.241 0.431,0.362 0.796,0.362 0.37,0 0.639,-0.121 0.807,-0.362 0.168,-0.241 0.252,-0.586 0.252,-1.034 0,-0.443 -0.084,-0.789 -0.252,-1.037"
             fill="#176fc1"
             id="path11871" />
        </g>
        <g
           transform="translate(547.95,26.599)"
           id="g11877">
          <path
             d="M 0,0 C -0.105,0.102 -0.157,0.26 -0.157,0.475 V 2.637 H 0.968 V 3.229 H -0.157 V 4.113 H -0.632 L -0.902,3.28 -1.48,2.988 V 2.637 h 0.548 V 0.46 c 0,-0.321 0.054,-0.572 0.161,-0.752 0.107,-0.181 0.25,-0.307 0.427,-0.38 0.178,-0.073 0.374,-0.11 0.589,-0.11 0.141,0 0.282,0.014 0.423,0.04 0.142,0.027 0.254,0.06 0.336,0.099 v 0.584 C 0.829,-0.122 0.632,-0.153 0.413,-0.153 0.242,-0.153 0.104,-0.102 0,0"
             fill="#176fc1"
             id="path11875" />
        </g>
        <g
           transform="translate(551.11,29.901)"
           id="g11881">
          <path
             d="m 0,0 c -0.356,0 -0.666,-0.082 -0.932,-0.245 -0.265,-0.163 -0.472,-0.398 -0.62,-0.705 -0.149,-0.307 -0.223,-0.682 -0.223,-1.125 0,-0.443 0.081,-0.813 0.244,-1.11 0.163,-0.297 0.391,-0.522 0.683,-0.672 0.293,-0.152 0.629,-0.227 1.009,-0.227 0.277,0 0.516,0.021 0.715,0.062 0.2,0.042 0.4,0.108 0.6,0.201 v 0.643 C 1.266,-3.271 1.063,-3.34 0.866,-3.386 0.668,-3.433 0.443,-3.456 0.19,-3.456 c -0.365,0 -0.649,0.107 -0.851,0.322 -0.202,0.214 -0.308,0.523 -0.318,0.927 h 2.645 v 0.424 c 0,0.551 -0.149,0.986 -0.446,1.305 C 0.923,-0.159 0.516,0 0,0 m -0.964,-1.637 c 0.029,0.332 0.127,0.588 0.295,0.768 0.168,0.18 0.391,0.27 0.669,0.27 0.302,0 0.525,-0.096 0.668,-0.289 0.144,-0.192 0.218,-0.442 0.223,-0.749 z"
             fill="#176fc1"
             id="path11879" />
        </g>
        <g
           transform="translate(555.2,29.243)"
           id="g11885">
          <path
             d="M 0,0 C 0.141,0 0.287,-0.021 0.438,-0.062 0.589,-0.103 0.733,-0.148 0.87,-0.197 L 1.103,0.431 C 0.977,0.494 0.817,0.548 0.625,0.592 0.432,0.636 0.227,0.658 0.007,0.658 c -0.36,0 -0.681,-0.072 -0.964,-0.216 -0.282,-0.144 -0.504,-0.367 -0.665,-0.668 -0.161,-0.303 -0.241,-0.697 -0.241,-1.184 0,-0.696 0.166,-1.207 0.497,-1.531 0.331,-0.324 0.77,-0.486 1.315,-0.486 0.239,0 0.441,0.02 0.606,0.059 0.166,0.039 0.319,0.1 0.461,0.183 v 0.672 C 0.874,-2.591 0.718,-2.655 0.548,-2.703 0.378,-2.752 0.185,-2.776 -0.029,-2.776 c -0.341,0 -0.599,0.117 -0.774,0.351 -0.176,0.233 -0.264,0.574 -0.264,1.022 C -1.067,-0.468 -0.711,0 0,0"
             fill="#176fc1"
             id="path11883" />
        </g>
        <g
           transform="translate(557.96,26.599)"
           id="g11889">
          <path
             d="M 0,0 C -0.105,0.102 -0.157,0.26 -0.157,0.475 V 2.637 H 0.968 V 3.229 H -0.157 V 4.113 H -0.632 L -0.902,3.28 -1.48,2.988 V 2.637 h 0.548 V 0.46 c 0,-0.321 0.054,-0.572 0.161,-0.752 0.107,-0.181 0.25,-0.307 0.428,-0.38 0.177,-0.073 0.373,-0.11 0.588,-0.11 0.141,0 0.282,0.014 0.423,0.04 0.142,0.027 0.254,0.06 0.336,0.099 v 0.584 C 0.829,-0.122 0.632,-0.153 0.413,-0.153 0.242,-0.153 0.105,-0.102 0,0"
             fill="#176fc1"
             id="path11887" />
        </g>
        <g
           transform="translate(559.97,31.326)"
           id="g11893">
          <path
             d="m 0,0 c -0.122,0 -0.227,-0.034 -0.314,-0.102 -0.088,-0.068 -0.132,-0.183 -0.132,-0.344 0,-0.155 0.044,-0.269 0.132,-0.339 0.087,-0.071 0.192,-0.106 0.314,-0.106 0.117,0 0.219,0.035 0.307,0.106 0.087,0.07 0.131,0.184 0.131,0.339 0,0.161 -0.044,0.276 -0.131,0.344 C 0.219,-0.034 0.117,0 0,0"
             fill="#176fc1"
             id="path11891" />
        </g>
      </g>
    </g>
    <g
       transform="matrix(0.71256129,0,0,-0.71256129,-9.1152478,187.55419)"
       id="g11901">
      <path
         d="M 0,0 V -3.938 H 0.774 V 0 Z"
         fill="#176fc1"
         id="path11899" />
    </g>
    <g
       transform="matrix(0.71256129,0,0,-0.71256129,-407.85104,208.80298)"
       id="g11913">
      <g
         clip-path="url(#e)"
         id="g11911">
        <g
           transform="translate(563.96,29.664)"
           id="g11905">
          <path
             d="m 0,0 c -0.275,0.158 -0.593,0.237 -0.954,0.237 -0.574,0 -1.027,-0.176 -1.358,-0.529 -0.332,-0.353 -0.497,-0.856 -0.497,-1.509 0,-0.438 0.079,-0.81 0.237,-1.114 0.158,-0.305 0.375,-0.536 0.65,-0.694 0.276,-0.158 0.591,-0.238 0.947,-0.238 0.569,0 1.022,0.178 1.359,0.534 0.335,0.355 0.504,0.859 0.504,1.512 0,0.438 -0.08,0.809 -0.238,1.111 C 0.492,-0.388 0.275,-0.158 0,0 m -0.161,-2.838 c -0.168,-0.249 -0.434,-0.373 -0.8,-0.373 -0.365,0 -0.632,0.124 -0.8,0.373 -0.168,0.248 -0.252,0.594 -0.252,1.037 0,0.448 0.083,0.793 0.248,1.034 0.166,0.241 0.432,0.362 0.797,0.362 0.37,0 0.639,-0.121 0.807,-0.362 0.168,-0.241 0.252,-0.586 0.252,-1.034 0,-0.443 -0.084,-0.789 -0.252,-1.037"
             fill="#176fc1"
             id="path11903" />
        </g>
        <g
           transform="translate(568.69,29.558)"
           id="g11909">
          <path
             d="M 0,0 C -0.244,0.229 -0.594,0.343 -1.052,0.343 -1.3,0.343 -1.535,0.295 -1.757,0.197 -1.979,0.1 -2.153,-0.051 -2.279,-0.256 h -0.044 l -0.11,0.526 h -0.614 v -3.938 h 0.775 v 1.987 c 0,0.449 0.077,0.792 0.23,1.031 0.153,0.238 0.43,0.358 0.829,0.358 0.541,0 0.811,-0.307 0.811,-0.921 v -2.455 h 0.767 v 2.565 C 0.365,-0.597 0.244,-0.229 0,0"
             fill="#176fc1"
             id="path11907" />
        </g>
      </g>
    </g>
  </g>
</svg>
