<svg id="Layer_1" data-name="Layer 1" xmlns="http://www.w3.org/2000/svg" viewBox="0 0 1024 198.47622"><defs><style>.cls-1{fill:#9fef00;}.cls-2{fill:#141a26;}</style></defs><path class="cls-1" d="M204.51453,60.92377c.00036-.02783.00549-.05469.00549-.08252a5.98419,5.98419,0,0,0-1.83154-4.30274c-.05658-.05615-.12073-.10424-.17975-.1582-.12555-.11182-.25012-.22461-.38574-.32617-.12995-.09888-.26941-.18579-.40882-.27368-.06457-.04053-.123-.08838-.18939-.12671L136.76489,18.2641q-.23474-.13953-.47894-.2583a6.00448,6.00448,0,0,0-5.73669.28735L65.83765,55.653c-.07264.042-.13684.094-.20728.13867-.04932.03125-.10144.05346-.15021.08618-.04748.03174-.08795.071-.13427.10449-.11988.08594-.23487.176-.34729.27-.07264.06152-.14435.123-.2135.188a6.00073,6.00073,0,0,0-.42994.43994l-.01788.02051a5.979,5.979,0,0,0-1.49487,3.94043c0,.03174.0058.0625.00628.09424-.00152.05957-.01.11865-.01.17822l.00007,74.60791a5.99023,5.99023,0,0,0,3.16052,5.28125l64.6867,37.34668c.05182.02978.10712.05029.15961.07837.13489.07275.27106.14038.40985.2019.09076.04029.18146.0791.27368.1145.14368.05542.28888.103.43555.147.08984.0271.17883.05566.26965.07837.16059.04.32257.06909.48523.09546.07849.01294.15607.03051.23487.04a5.62888,5.62888,0,0,0,1.45361,0c.07886-.00952.15649-.02709.23505-.04.16253-.02662.3244-.05567.48486-.09546.091-.02271.18018-.05152.2702-.07837.14649-.04395.29151-.09156.435-.14673.09229-.03565.183-.07446.2738-.11475.13886-.06152.27515-.12939.41016-.2019.05237-.02832.1076-.04859.1593-.07837l64.68677-37.34668a5.99018,5.99018,0,0,0,3.16046-5.28125l.00018-74.65381C204.5238,61.01947,204.51556,60.97211,204.51453,60.92377ZM88.22034,58.40106l44.05237-25.43383a2.81862,2.81862,0,0,1,2.81842,0l44.05169,25.4331a2.81857,2.81857,0,0,1,0,4.88184L135.09045,88.716a2.81862,2.81862,0,0,1-2.81842,0L88.22034,63.28265A2.81835,2.81835,0,0,1,88.22034,58.40106Zm37.82977,96.6731a2.81183,2.81183,0,0,1-4.2179,2.43506L77.86627,132.12543a2.81225,2.81225,0,0,1-1.40594-2.4353V78.9267a2.81186,2.81186,0,0,1,4.21783-2.43506l43.966,25.384a2.812,2.812,0,0,1,1.40594,2.43531Zm64.852-25.384a2.81224,2.81224,0,0,1-1.40595,2.4353l-43.966,25.38379a2.81179,2.81179,0,0,1-4.21783-2.43506V104.311a2.812,2.812,0,0,1,1.40594-2.43531l43.966-25.384a2.81186,2.81186,0,0,1,4.21783,2.43506Z"/><path class="cls-2" d="M307.064,129.18483V105.34932a1.51826,1.51826,0,0,0-1.51826-1.51826H284.6252a1.51826,1.51826,0,0,0-1.51826,1.51826v23.83551a1.51826,1.51826,0,0,1-1.51826,1.51826H268.86657a1.51826,1.51826,0,0,1-1.51826-1.51826V67.36315a1.51826,1.51826,0,0,1,1.51826-1.51826h12.72211a1.51826,1.51826,0,0,1,1.51826,1.51826V88.92127a1.51826,1.51826,0,0,0,1.51826,1.51826h20.92056a1.51826,1.51826,0,0,0,1.51826-1.51826V67.36315a1.51826,1.51826,0,0,1,1.51826-1.51826h12.72211a1.51826,1.51826,0,0,1,1.51826,1.51826v61.82168a1.51826,1.51826,0,0,1-1.51826,1.51826H308.58228A1.51826,1.51826,0,0,1,307.064,129.18483Z"/><path class="cls-2" d="M357.56837,118.02413l-3.53459,11.60312a1.51827,1.51827,0,0,1-1.45237,1.07584h-13.3315a1.51826,1.51826,0,0,1-1.43689-2.00865l21.09857-61.82167a1.51825,1.51825,0,0,1,1.43688-1.02788h18.506a1.51826,1.51826,0,0,1,1.43688,1.02787l21.09928,61.82167a1.51827,1.51827,0,0,1-1.43688,2.00866H386.62866a1.51827,1.51827,0,0,1-1.455-1.08467l-3.4524-11.58545a1.51826,1.51826,0,0,0-1.455-1.08467H359.02074A1.51826,1.51826,0,0,0,357.56837,118.02413ZM376.20567,99.641c-2.36858-7.744-4.64523-15.75937-6.55862-23.59383h-.18237C367.552,83.88165,365.36582,91.897,363.08843,99.641l-.70838,2.42909a1.51825,1.51825,0,0,0,1.45754,1.94332h11.66928a1.51826,1.51826,0,0,0,1.44916-1.97109Z"/><path class="cls-2" d="M468.58477,89.16443H455.22518a1.51584,1.51584,0,0,1-1.49026-1.25678c-1.09927-6.24356-5.34518-9.85588-11.75847-9.85588-8.56246,0-13.846,7.65209-13.846,20.22222s5.28351,20.22222,13.6636,20.22222c6.43793,0,10.77274-3.72042,12.01389-10.247a1.51326,1.51326,0,0,1,1.48567-1.23039h13.50891a1.52775,1.52775,0,0,1,1.50956,1.72263c-1.89746,15.04106-12.6267,23.41912-28.518,23.41912-18.67357,0-30.151-12.84443-30.151-33.88657s11.56858-33.88657,30.33333-33.88657c16.13391,0,26.78146,8.9477,28.12415,23.10326A1.52753,1.52753,0,0,1,468.58477,89.16443Z"/><path class="cls-2" d="M542.262,130.70309H526.236a1.51826,1.51826,0,0,1-1.26624-.68056L505.653,100.82419h-.18237v28.36064a1.51826,1.51826,0,0,1-1.51826,1.51826H491.22947a1.51826,1.51826,0,0,1-1.51826-1.51826V67.36315a1.51826,1.51826,0,0,1,1.51826-1.51826h12.72285a1.51826,1.51826,0,0,1,1.51826,1.51826v26.448h.18237l18.58563-27.30234a1.51826,1.51826,0,0,1,1.25506-.6639h14.97188a1.51827,1.51827,0,0,1,1.20381,2.44344L520.65247,95.635a1.51827,1.51827,0,0,0-.01586,1.82935l22.845,30.81629A1.51826,1.51826,0,0,1,542.262,130.70309Z"/><path class="cls-2" d="M586.27125,74.83288v54.352a1.51826,1.51826,0,0,1-1.51826,1.51826H579.3175a1.51826,1.51826,0,0,1-1.51826-1.51826V74.83288a1.51826,1.51826,0,0,0-1.51826-1.51826H557.18263a1.51826,1.51826,0,0,1-1.51827-1.51826V67.36315a1.51826,1.51826,0,0,1,1.51827-1.51826h49.70524a1.51826,1.51826,0,0,1,1.51826,1.51826v4.43321a1.51826,1.51826,0,0,1-1.51826,1.51826H587.78951A1.51826,1.51826,0,0,0,586.27125,74.83288Z"/><path class="cls-2" d="M666.79837,129.18483V102.252a1.51826,1.51826,0,0,0-1.51826-1.51826H635.25072a1.51826,1.51826,0,0,0-1.51826,1.51826v26.93282a1.51826,1.51826,0,0,1-1.51826,1.51826h-5.3443a1.51826,1.51826,0,0,1-1.51826-1.51826V67.36315a1.51826,1.51826,0,0,1,1.51826-1.51826h5.3443a1.51826,1.51826,0,0,1,1.51826,1.51826V91.83621a1.51826,1.51826,0,0,0,1.51826,1.51826h30.02939a1.51826,1.51826,0,0,0,1.51826-1.51826V67.36315a1.51826,1.51826,0,0,1,1.51826-1.51826h5.43549a1.51826,1.51826,0,0,1,1.51826,1.51826v61.82168a1.51826,1.51826,0,0,1-1.51826,1.51826h-5.43549A1.51826,1.51826,0,0,1,666.79837,129.18483Z"/><path class="cls-2" d="M709.97984,74.83288v17.46a1.51825,1.51825,0,0,0,1.51826,1.51826h28.48073a1.51826,1.51826,0,0,1,1.51826,1.51826v4.34128a1.51826,1.51826,0,0,1-1.51826,1.51826H711.4981a1.51826,1.51826,0,0,0-1.51826,1.51826V121.7151a1.51826,1.51826,0,0,0,1.51826,1.51826h31.39567a1.51826,1.51826,0,0,1,1.51826,1.51826v4.43321a1.51826,1.51826,0,0,1-1.51826,1.51826h-39.7765a1.51826,1.51826,0,0,1-1.51826-1.51826V67.36315a1.51826,1.51826,0,0,1,1.51826-1.51826h38.77495a1.51826,1.51826,0,0,1,1.51826,1.51826v4.43321a1.51826,1.51826,0,0,1-1.51826,1.51826H711.4981A1.51825,1.51825,0,0,0,709.97984,74.83288Z"/><path class="cls-2" d="M790.59814,65.84489c16.12336,0,23.59234,6.74173,23.59234,16.66973,0,7.56165-3.55249,12.20688-11.02221,14.849v.18088c8.472,1.91414,12.66205,6.9241,12.66205,15.12182,0,11.02221-8.74482,18.03676-23.68353,18.03676h-25.3545a1.51826,1.51826,0,0,1-1.51826-1.51826V67.36315a1.51826,1.51826,0,0,1,1.51826-1.51826Zm-9.8383,24.71622a1.51826,1.51826,0,0,0,1.51826,1.51826h6.6802c7.0138,0,10.01992-2.27739,10.01992-7.105s-2.91494-6.92261-9.47356-6.92261H782.2781A1.51826,1.51826,0,0,0,780.75984,79.57Zm0,26.3264a1.51826,1.51826,0,0,0,1.51826,1.51826H789.323c7.37779,0,10.29274-2.27739,10.29274-7.19691,0-5.19233-3.00539-7.56017-10.5663-7.56017H782.2781a1.51826,1.51826,0,0,0-1.51826,1.51826Z"/><path class="cls-2" d="M893.53443,98.274c0,20.85977-12.02451,33.88657-31.33563,33.88657-19.403,0-31.4268-13.0268-31.4268-33.88657s12.02376-33.88657,31.4268-33.88657C881.50992,64.38742,893.53443,77.41422,893.53443,98.274Zm-46.27507,0c0,12.7525,5.46588,20.22222,14.93944,20.22222,9.38238,0,14.84752-7.46972,14.84752-20.22222s-5.46514-20.22222-14.84752-20.22222C852.72524,78.05177,847.25936,85.52149,847.25936,98.274Z"/><path class="cls-2" d="M959.70277,130.70309H944.74165a1.51828,1.51828,0,0,1-1.34686-.81748l-11.23442-21.59169H931.978l-11.32454,21.596a1.51826,1.51826,0,0,1-1.34461.81318H904.43a1.51826,1.51826,0,0,1-1.29875-2.30461L921.392,98.23837a1.51828,1.51828,0,0,0,.00181-1.56969l-17.179-28.52219a1.51827,1.51827,0,0,1,1.30058-2.3016h14.50905a1.51828,1.51828,0,0,1,1.35339.83018L931.978,87.52459h.18237l10.51016-20.845a1.51826,1.51826,0,0,1,1.35569-.83472h14.50555a1.51826,1.51826,0,0,1,1.30057,2.3016L942.65442,96.66688a1.51826,1.51826,0,0,0,.00341,1.57231l18.34211,30.15666A1.51827,1.51827,0,0,1,959.70277,130.70309Z"/></svg>