<svg xmlns="http://www.w3.org/2000/svg" viewBox="0 0 480 111"><path d="m115.6 18.5-6.9 3.4-42.5 21.6v.1L45.8 54l-9.7 5 .7 4.4c2.5 15.5 9.8 32 21.5 42.6l4.4 4 4.5-4c11.6-10.7 19-27.1 21.5-42.6l.7-4.8-15.8-8-7.3 3.8 15.8 7.9C79.7 77 72.7 91.8 62.7 101c-10-9.2-17-24-19.4-38.7l19.4-9.8h.1l7.4-3.7 3.4-1.8 40.5-20.4c7 9 5.5 21.9-3.5 29-4.9 3.8-11.2 5.3-17.3 3.9l-.6 4.6-.3 2.2c14.9 3.1 29.4-6.5 32.4-21.4 1.5-7.5-.1-15.2-4.5-21.5-1.4-1.6-2.9-3.4-4.7-4.9zM32.1 59.7C21 62.2 9.9 55.3 7.4 44.2c-1.4-6.1 0-12.5 3.9-17.4l40.5 20.4 7.5-3.7L16.6 22l-6.8-3.4c-1.8 1.4-3.4 3.1-4.7 5C-3.7 36-.8 53.1 11.6 61.9c6.2 4.4 14 6.1 21.5 4.5l-.3-2.1-.7-4.6zm20.5-44.8c-4 5-7.3 10.4-9.9 16.3l6 3c3.2-7.7 7.9-14.6 14-20.3 6 5.7 10.8 12.6 14 20.3l5.9-3c-2.6-5.8-5.9-11.3-9.9-16.3C75.6 9.6 80.3 5.5 86 3.5L83.6 0c-5.7 2.3-10.5 6.4-13.7 11.7-.9-.9-1.8-1.9-2.8-2.7l-4.4-4-4.4 4c-1 .9-1.9 1.8-2.8 2.7-3.2-5.3-8-9.3-13.7-11.7l-2.4 3.5c5.6 2 10.3 6.1 13.2 11.4zm109.2 12.4h-9.5v10.9l9.5-4.9v-6zm121.4 0h-9.5v10.9l9.5-4.9v-6zm126.9 0h-9.5v10.9l9.5-4.9v-6zm69.7 0h-9.5v10.9l9.5-4.9v-6zM152.3 43.1v39.1h9.6l-.1-43.9-9.5 4.8zm121.4 0v39.1h9.6l-.1-43.9-9.5 4.8zm126.9 0v39.1h9.6l-.1-43.9-9.5 4.8zm79.3-4.8-9.5 4.8v39.1h9.6l-.1-43.9zm-274 27.3-19.6-27.3h-11v43.9h8.4V51.9l22.2 30.3h8.2v-44h-8.2v27.4zm18.9-19.1h13.9v35.7h9.6V46.5h13.8v-8.1h-37.3v8.1zm91.7 12.3v8c.6.1 1.1.1 1.7.1 2.4 0 6.9-.1 8.9-.1h1c-1.8 4.2-6.7 6.6-11.6 6.6-7.3 0-13.2-5.9-13.2-13.2S309.2 47 316.5 47c4.7-.1 9 2.4 11.3 6.4 4.3-2.1 4.6-2.3 8.5-4.3-4.1-7.1-11.6-11.5-19.8-11.5-8.3 0-15.9 4.5-19.8 11.7-6 11-2 24.7 9 30.7s24.7 2 30.7-9c2.2-2.9 2.5-11 2.5-12.3-7.6.1-16.2.1-22.4.1zm58.2 7.1c7.3-1.6 10.4-7.6 10.4-13.5 0-7.1-4.2-14-15.2-14h-19.8v43.8h9.7V66.4h4.7l11 15.7h11.8L375 65.9h-.3zm-7.4-6.9h-7.5V45.8h7.5c4.6 0 8.4.9 8.4 6.6-.1 5.6-3.8 6.6-8.4 6.6zm54.1-12.5h13.9v35.7h9.6V46.5h13.8v-8.1h-37.3v8.1z" style="fill:#161a36"></path></svg>