<?xml version="1.0" encoding="UTF-8" standalone="no"?>
<svg
   width="612"
   height="152"
   viewBox="0 0 612 152"
   fill="none"
   version="1.1"
   id="svg12"
   sodipodi:docname="riskconcile.svg"
   inkscape:version="1.3.2 (091e20ef0f, 2023-11-25, custom)"
   xmlns:inkscape="http://www.inkscape.org/namespaces/inkscape"
   xmlns:sodipodi="http://sodipodi.sourceforge.net/DTD/sodipodi-0.dtd"
   xmlns="http://www.w3.org/2000/svg"
   xmlns:svg="http://www.w3.org/2000/svg">
  <sodipodi:namedview
     id="namedview12"
     pagecolor="#ffffff"
     bordercolor="#000000"
     borderopacity="0.25"
     inkscape:showpageshadow="2"
     inkscape:pageopacity="0.0"
     inkscape:pagecheckerboard="0"
     inkscape:deskcolor="#d1d1d1"
     inkscape:zoom="1.6921015"
     inkscape:cx="251.46246"
     inkscape:cy="72.986165"
     inkscape:window-width="1920"
     inkscape:window-height="1131"
     inkscape:window-x="0"
     inkscape:window-y="0"
     inkscape:window-maximized="1"
     inkscape:current-layer="svg12" />
  <g
     clip-path="url(#clip0_1_2)"
     id="g12"
     style="fill:#000000;fill-opacity:1">
    <path
       d="M602.34 151.45C598.76 148.18 595.23 144.86 591.59 141.66C567.45 120.42 543.29 99.2 519.14 77.97C518.54 77.44 517.97 76.88 517.27 76.23C542.86 53.75 568.34 31.36 593.81 8.97C593.77 8.78 593.73 8.6 593.69 8.41C592.69 8.41 591.69 8.41 590.69 8.41C472.5 8.41 354.31 8.41 236.13 8.41C163.17 8.41 90.21 8.41 17.24 8.41C13.31 8.41 13.74 8 13.73 11.93C13.71 19.32 13.73 26.7 13.73 34.08C13.73 34.96 13.73 35.83 13.73 37.01C10.78 37.01 8.04 37.01 5.3 37.01C5.3 24.67 5.3 12.34 5.3 0C6.44 0 7.58 0.01 8.72 0.01C210.25 0.01 411.79 0.01 613.32 0.01C614.34 0.01 615.36 0.01 617.01 0.01C587.81 25.67 559.11 50.89 530.2 76.29C556.45 99.36 582.54 122.28 608.7 145.27C606.83 147.42 605.07 149.44 603.32 151.45C602.99 151.45 602.66 151.45 602.34 151.45Z"
       fill="white"
       id="path1"
       style="fill:#000000;fill-opacity:1" />
    <path
       d="M23.74 142.45C24.25 144.01 24.7 145.36 25.13 146.67C17.15 152.21 6.79 148.18 5.35 138.8C4.8 135.23 4.88 131.25 5.88 127.81C8.24 119.67 17.61 116.65 25.13 121.39C24.69 122.73 24.23 124.14 23.76 125.6C22.02 125.15 20.43 124.62 18.79 124.35C15.6 123.83 12.93 125.27 11.71 128.25C10.08 132.26 10.17 136.37 11.84 140.33C13.2 143.56 16.84 144.67 21.13 143.41C21.89 143.18 22.63 142.85 23.74 142.45Z"
       fill="white"
       id="path2"
       style="fill:#000000;fill-opacity:1" />
    <path
       d="M119.72 142.45C120.23 144.01 120.68 145.36 121.11 146.67C113.13 152.21 102.77 148.18 101.33 138.8C100.78 135.23 100.86 131.25 101.86 127.81C104.22 119.67 113.59 116.65 121.11 121.39C120.67 122.73 120.21 124.14 119.74 125.6C118 125.15 116.41 124.62 114.77 124.35C111.58 123.83 108.91 125.27 107.69 128.25C106.06 132.26 106.15 136.37 107.82 140.33C109.18 143.56 112.82 144.67 117.11 143.41C117.87 143.18 118.62 142.85 119.72 142.45Z"
       fill="white"
       id="path3"
       style="fill:#000000;fill-opacity:1" />
    <path
       d="M19.52 83.01C18.57 81.41 18.91 81.31 18.91 81.31C22.18 79.67 23.05 76.13 23 73.74C22.93 70.13 21.22 67.43 17.24 65.8C14.17 64.53 5 65.49 5 65.49V93.44H10.45V82.67H13.31L18.97 93.44H25.11C25.11 93.44 20.2 84.14 19.52 83.01ZM14 78.24H10.32V69.51H13.86C13.86 69.51 17.4 69.51 17.4 73.87C17.41 78.24 14 78.24 14 78.24Z"
       fill="white"
       id="path4"
       style="fill:#000000;fill-opacity:1" />
    <path
       d="M38.43 65.14H56.06V69.51H49.79V89.12H56.06V93.44H38.43V88.98H44.47V69.21H38.43V65.14Z"
       fill="white"
       id="path5"
       style="fill:#000000;fill-opacity:1" />
    <path
       d="M134.55 120.06H152.18V124.42H145.91V144.03H152.18V148.35H134.55V143.9H140.59V124.13H134.55V120.06Z"
       fill="white"
       id="path6"
       style="fill:#000000;fill-opacity:1" />
    <path
       d="M87.78 66.26L86.14 70.67C86.14 70.67 81.9 68.05 78.1 68.91C76.6 69.25 75.68 70.31 75.55 71.53C75.48 72.21 75.61 73.83 77.11 74.69C78.61 75.55 82.67 76.89 84.82 78.08C85.89 78.67 89.18 81.08 89.18 84.94C89.18 89.76 86.5 91.8 86.5 91.8C86.5 91.8 84.09 93.98 80 93.98C75.91 93.98 73.14 93.21 69.68 91.84L71.36 87.02C71.36 87.02 76.49 89.29 79.18 89.07C81.78 88.85 82.95 87.43 83.18 86.03C83.41 84.62 82.68 82.85 80.09 81.89C77.5 80.94 75.23 80.21 73.27 78.94C71.32 77.67 69.76 75.53 70.04 71.26C70.34 66.82 75.22 64.76 75.22 64.76C75.22 64.76 81.6 61.99 87.78 66.26Z"
       fill="white"
       id="path7"
       style="fill:#000000;fill-opacity:1" />
    <path
       d="M102.02 65.01H107.37V76.74C107.37 76.74 111.39 72.99 115.14 65.01H121.04C121.04 65.01 118.46 71.85 112.69 77.99C112.69 77.99 121.55 87.67 122.46 93.35H115.96C115.96 93.35 111.6 83.26 107.46 80.67V93.35H102.02V65.01Z"
       fill="white"
       id="path8"
       style="fill:#000000;fill-opacity:1" />
    <path
       d="M47.31 119.21C41.78 119.21 37.29 123.97 37.29 129.84C37.29 130.04 37.3 130.23 37.31 130.42C37.31 131.93 37.29 136.02 37.29 138.55C37.29 144.42 41.78 149.18 47.31 149.18C52.84 149.18 57.33 144.42 57.33 138.55C57.33 135.61 57.33 129.84 57.33 129.84C57.33 123.97 52.85 119.21 47.31 119.21ZM51.59 139.68C51.59 142.19 49.67 144.22 47.31 144.22C44.95 144.22 43.03 142.19 43.03 139.68C43.03 138.6 43.03 133.23 43.04 132.58C43.04 132.5 43.03 128.7 43.03 128.62C43.03 126.11 44.95 124.08 47.31 124.08C49.67 124.08 51.59 126.11 51.59 128.62C51.59 128.62 51.59 138.43 51.59 139.68Z"
       fill="white"
       id="path9"
       style="fill:#000000;fill-opacity:1" />
    <path
       d="M70.01 148.59V119.82H74.58L83.78 137.54V119.82H88.69V148.59H84.3L74.85 129.57V148.59H70.01Z"
       fill="white"
       id="path10"
       style="fill:#000000;fill-opacity:1" />
    <path
       d="M217.07 148.37C211 148.37 205.17 148.37 199.15 148.37C199.15 138.92 199.15 129.57 199.15 120.04C204.72 120.04 210.29 120.04 216.04 120.04C216.04 121.54 216.04 123.02 216.04 124.76C212.33 124.76 208.71 124.76 204.91 124.76C204.91 126.92 204.91 128.82 204.91 131.01C208.12 131.01 211.33 131.01 214.62 131.01C214.62 132.71 214.62 134.13 214.62 135.78C211.35 135.78 208.21 135.78 204.9 135.78C204.9 138.4 204.9 140.78 204.9 143.51C208.92 143.51 212.92 143.51 217.06 143.51C217.07 145.27 217.07 146.69 217.07 148.37Z"
       fill="white"
       id="path11"
       style="fill:#000000;fill-opacity:1" />
    <path
       d="M173.07 120.04C173.07 127.84 173.07 135.52 173.07 143.49C177.14 143.49 181 143.49 185.03 143.49C185.03 145.26 185.03 146.75 185.03 148.35C179.12 148.35 173.37 148.35 167.43 148.35C167.43 138.93 167.43 129.58 167.43 120.05C169.18 120.04 170.93 120.04 173.07 120.04Z"
       fill="white"
       id="path12"
       style="fill:#000000;fill-opacity:1" />
  </g>
  <defs
     id="defs12">
    <clipPath
       id="clip0_1_2">
      <rect
         width="612"
         height="151.45"
         fill="white"
         id="rect12" />
    </clipPath>
  </defs>
</svg>
