<svg width="386.46mm" height="45.37mm" version="1.1" viewBox="0 0 386.46 45.37" xmlns="http://www.w3.org/2000/svg">
 <defs>
  <style>.st0 {
        fill: #1e1e1e;
      }</style>
 </defs>
 <g transform="translate(113.4 -132.45)">
  <g transform="matrix(.68637 0 0 .68637 98.541 132.65)">
   <path id="Combined-Shape" d="m24.624 21.022c0 4.227-0.099 7.496-1.706 10.16-2.113 3.474-5.78 5.383-10.456 5.383-3.217 0-6.28-1.305-8.592-3.67-2.311-2.312-3.568-5.482-3.568-8.8 0-3.322 1.258-6.439 3.568-8.802 2.259-2.312 5.072-3.522 8.14-3.522 2.662 0 4.777 0.856 6.232 2.415v-14.13h6.382v20.967zm5.115 2.469c0-7.897 3.718-11.869 11.005-11.869 3.116 0 5.93 1.206 7.841 3.168 2.312 2.364 2.613 5.031 2.613 8.701v12.421h-6.381v-12.421c0-3.523-1.406-5.231-4.323-5.231-2.966 0-4.273 1.66-4.273 5.231v12.421h-6.483v-12.421zm38.905-1.428c3.62 1.008 5.678 3.412 5.678 6.679 0 4.754-3.565 7.975-8.993 7.975-4.425 0-7.741-1.923-9.246-5.431l5.227-2.834c0.134 0.221 0.277 0.424 0.426 0.612 0.947 1.223 2.143 1.839 3.492 1.839 1.503 0 2.613-0.962 2.613-2.017 0-1.197-1.109-1.497-2.89-1.927-0.366-0.085-0.76-0.179-1.182-0.285l-0.348-0.092c-0.511-0.129-1.063-0.265-1.659-0.435-3.62-1.008-5.679-3.412-5.679-6.679 0-4.756 3.567-7.975 8.993-7.975 4.423 0 7.741 1.922 9.246 5.429l-5.224 2.837c-0.138-0.219-0.279-0.424-0.429-0.613-0.947-1.225-2.146-1.837-3.492-1.837-1.509 0-2.613 0.96-2.613 2.015 0 1.197 1.109 1.501 2.892 1.927 0.364 0.083 0.758 0.179 1.18 0.283l0.348 0.094c0.512 0.127 1.063 0.265 1.661 0.435zm-55.981-4.107c-3.314 0-5.828 2.668-5.828 6.138 0 3.472 2.611 6.083 5.725 6.083 3.319 0 5.681-2.411 5.681-6.083 0-3.571-2.311-6.138-5.579-6.138z" fill="#1e5fa6"/>
   <path d="m87.207 12.751v15.156c2.487-1.268 4.047-1.674 6.128-1.674 6.766 0 12.373 5.784 12.373 12.67 0 7.059-5.78 12.847-12.835 12.847-4.335 0-8.442-2.258-10.753-5.901-1.562-2.433-2.024-4.457-2.024-8.739v-24.359h7.112zm45.736 30.55c-2.023 5.206-6.419 8.332-11.851 8.332-7.054 0-12.606-5.613-12.606-12.729 0-7.059 5.552-12.615 12.546-12.615 6.476 0 12.373 5.265 12.373 10.993 0 2.604-2.196 4.342-5.549 4.342h-11.968c1.097 2.314 2.717 3.472 5.086 3.472 1.562 0 2.66-0.52 3.992-1.794h7.977zm4.567 8.044v-38.596h7.054v38.596zm18.851 2.372c0.694 3.297 2.777 5.15 5.665 5.15 3.355 0 5.262-2.604 5.262-7.174v-2.201c-2.832 1.679-4.104 2.083-6.301 2.083-6.766 0-12.316-5.726-12.316-12.67 0-7.059 5.723-12.79 12.894-12.79 4.105 0 7.977 1.968 10.35 5.325 1.735 2.374 2.427 4.803 2.427 8.39v10.936c0 5.152-0.578 7.349-2.544 9.896-2.369 3.011-6.013 4.801-9.887 4.801-4.798 0-9.309-2.719-11.274-6.771-0.636-1.329-0.982-2.544-1.332-4.975h7.055zm23.129-2.373v-24.822h7.054v24.822zm34.458-12.267c0 4.108-0.346 5.613-1.85 7.87-2.023 3.182-5.492 5.033-9.309 5.033-3.816 0-7.458-1.968-9.422-5.091-1.215-2.084-1.678-4.052-1.678-7.697v-12.672h7.112v12.557c0 2.083 0.058 2.952 0.346 3.76 0.521 1.45 2.083 2.491 3.701 2.491 1.62 0 3.181-1.041 3.643-2.547 0.29-0.868 0.346-1.446 0.346-3.762v-12.499h7.112v12.557zm33.191 12.266v-14.291c0-1.563-0.115-2.199-0.519-2.951-0.579-1.1-1.793-1.794-3.008-1.794-1.214 0-2.369 0.636-3.005 1.679-0.638 0.925-0.638 1.039-0.638 3.182v14.175h-7.054v-14.233c0-1.966-0.057-2.316-0.519-3.067-0.636-0.983-1.793-1.619-2.95-1.619-1.212 0-2.369 0.695-3.005 1.678-0.465 0.751-0.519 1.098-0.519 3.067v14.175h-7.115v-13.077c0-4.223 0.35-5.843 1.738-7.927 1.848-2.836 5.027-4.513 8.44-4.513 2.892 0 5.204 1.041 7.343 3.182 2.657-2.314 4.626-3.122 7.4-3.122 3.469 0 6.593 1.676 8.559 4.512 1.502 2.199 1.964 4.05 1.964 7.927v13.019h-7.112zm-60.364-31.476c0 2.141-1.851 3.992-3.991 3.992-2.137 0-3.932-1.794-3.932-3.992 0-2.199 1.736-3.933 3.932-3.933 2.256 0 3.991 1.734 3.991 3.933zm-99.626 19.095c0 3.239 2.602 5.903 5.782 5.903 3.123 0 5.723-2.664 5.723-5.845 0-3.357-2.542-6.02-5.723-6.02-3.18 0-5.782 2.662-5.782 5.961zm38.741-2.488c-0.982-2.429-2.602-3.587-5.031-3.587s-4.393 1.386-5.204 3.587zm29.894 2.43c0 3.297 2.546 5.901 5.723 5.901 3.18 0 5.725-2.604 5.725-5.784 0-3.416-2.487-6.02-5.667-6.02-3.236 0-5.782 2.604-5.782 5.903z" fill="#049ee0"/>
  </g>
  <g transform="matrix(.45332 0 0 .45332 -121.97 129.59)">
   <path class="st0" d="m245 88c0 4.3-3.5 7.8-7.8 7.8s-7.8-3.5-7.8-7.8 3.5-7.8 7.8-7.8 7.8 3.5 7.8 7.8"/>
   <path class="st0" d="m328.5 63.2c0-7.6 5-14.7 12.3-14.7s6.3 2.2 6.3 5.8c0 7.2-7.7 10.2-14.9 10.2s-2.8-0.1-3.7-0.2v-1zm-53.3-44c3.5 0 5.6 2.1 5.6 5.7 0 8.1-9.5 16.7-18.6 20.3 0.6-14.3 4.7-26 13-26m85.8 55.6c-2.7 3.3-8.7 8.5-16 8.5s-12.6-3.8-14-8.7c1.1 0.1 3.6 0.2 5.3 0.2 12.9 0 23.4-6.9 23.4-20.6s-7.9-17.2-18.8-17.2-24.2 11.1-26.3 24.4c-7-1.3-12.5-5.6-15.6-9.6-3.1-3.7-4.8-5.5-6.3-6.4l-9.8 8.9c3.5 3.5 6.9 8.2 6.9 13.7s-5.9 14.1-13.5 14.1-14.2-10.3-14.2-20.2v-3.8c15-4.5 32.3-17.2 32.3-33.2s-8.3-18.3-19-18.3c-20.3 0-28.1 20.4-28.1 41.8v14.5c0 18 9.7 32.8 28.1 32.8s28.1-11 29-25.5c3.2 1.5 6.7 2.5 10.5 2.9 2.9 13.9 14.9 22.6 28.7 22.6s22-6.3 26.2-13l-8.9-7.9z"/>
   <rect class="st0" x="154.9" y="47.8" width="4.2" height="40.9"/>
   <polygon class="st0" points="118.4 84.8 148 51.2 148.1 51.1 148.1 47.8 114.8 47.8 114.8 51.7 142.5 51.7 113 85.3 112.9 85.4 112.9 88.7 148.1 88.7 148.1 84.8"/>
   <rect class="st0" x="87.3" y="47.8" width="4.2" height="40.9"/>
   <polygon class="st0" points="50.2 53.3 62.8 88.5 62.9 88.7 66.5 88.7 81.6 47.8 77.1 47.8 64.7 83.1 52 47.8 48.4 47.8 35.8 83.1 23.3 47.8 18.9 47.8 33.9 88.5 34 88.7 37.5 88.7"/>
   <path class="st0" d="m104.4 37.9c0.8 0 1.5-0.3 2.1-0.9s0.9-1.3 0.9-2.2-0.3-1.5-0.9-2.1-1.3-0.9-2.1-0.9-1.6 0.3-2.2 0.9-0.9 1.3-0.9 2.1 0.3 1.6 0.9 2.2 1.3 0.9 2.2 0.9"/>
   <path class="st0" d="m172 37.9c0.8 0 1.5-0.3 2.1-0.9s0.9-1.3 0.9-2.2-0.3-1.5-0.9-2.1-1.3-0.9-2.1-0.9-1.6 0.3-2.2 0.9-0.9 1.3-0.9 2.1 0.3 1.6 0.9 2.2 1.3 0.9 2.2 0.9"/>
   <path class="st0" d="m171.8 102.7c1.5-2.2 2.3-5.5 2.3-9.9v-44.9h-4.2v44.7c0 3.3-0.5 5.7-1.4 7.3-0.9 1.5-2.3 2.2-4.3 2.2h-0.4-0.5-0.3v4h1.6c3.2 0 5.6-1.1 7.1-3.3"/>
   <path class="st0" d="m216.5 51.9c-3.1-3.3-7.4-4.9-12.7-4.9s-6.8 0.9-9.5 2.7c-2.3 1.6-4.1 3.7-5.3 6.3v-8.2h-4.2v40.9h4.2v-23.4c0-4.3 1.3-7.9 3.9-10.5s6.1-4 10.3-4 7.5 1.3 10 3.9 3.8 6.2 3.8 10.5v23.4h4.1v-23.7c0-5.4-1.6-9.9-4.7-13.1"/>
   <path class="st0" d="m89.5 32c-0.8 0-1.6 0.3-2.2 0.9s-0.9 1.3-0.9 2.1 0.3 1.6 0.9 2.2 1.3 0.9 2.2 0.9 1.5-0.3 2.1-0.9 0.9-1.3 0.9-2.2-0.3-1.5-0.9-2.1-1.3-0.9-2.1-0.9"/>
   <path class="st0" d="m104.2 102.7c1.5-2.2 2.3-5.5 2.3-9.9v-44.9h-4.2v44.7c0 3.3-0.5 5.7-1.4 7.3-0.9 1.5-2.3 2.2-4.3 2.2h-0.4-0.5-0.3v4h1.6c3.2 0 5.6-1.1 7.1-3.3"/>
   <path class="st0" d="m157.1 37.9c0.8 0 1.5-0.3 2.1-0.9s0.9-1.3 0.9-2.2-0.3-1.5-0.9-2.1-1.3-0.9-2.1-0.9-1.6 0.3-2.2 0.9-0.9 1.3-0.9 2.1 0.3 1.6 0.9 2.2 1.3 0.9 2.2 0.9"/>
  </g>
 </g>
</svg>
